<svg xmlns="http://www.w3.org/2000/svg" version="1.1" xmlns:xlink="http://www.w3.org/1999/xlink" xmlns:svgjs="http://svgjs.dev/svgjs" width="1756" height="2358"><svg width="1756" height="2358" viewBox="0 0 1756 2358" fill="none" xmlns="http://www.w3.org/2000/svg">
<g clip-path="url(#clip0_21_98)">
<mask id="SvgjsMask1003" style="mask-type:luminance" maskUnits="userSpaceOnUse" x="0" y="0" width="1756" height="2358">
<path d="M1756 0H0V2358H1756V0Z" fill="white"></path>
</mask>
<g mask="url(#mask0_21_98)">
<path fill-rule="evenodd" clip-rule="evenodd" d="M850 231H909V232H918L936 233C939.382 233.043 944.159 232.384 946 234H933V235C926.959 236.721 917.442 234.449 912 236H902L886 237V238H876C866.744 240.689 854.1 240.336 845 243L832 244L777 255V256L765 258C757.105 260.708 747.662 263.242 740 266H736V267H733V268H729V269L723 270V271H720V272H717V273H714V274H711V275H708V276H705V277H702V278H699V279H696V280H693V281H691V282L685 283V284H683V285L677 286V287H675V288H672V289H670V290H667V291L662 292V293H660V294H657V295L653 296V297H650V298L646 299V300H643V301H641V302L637 303V304H634V305H632V306H630V307L624 309V310H621V311H619V312L615 313V314H613V315H611V316H609V317H607V318H605V319H603V320H601V321H599V322H597V323H595C594.667 323.667 594.334 324.333 594 325H592V326H590V327H588V328H586V329H584V330L580 331C579.667 331.667 579.334 332.333 579 333L573 335C572.667 335.667 572.334 336.333 572 337L566 339C565.667 339.667 565.334 340.333 565 341L559 343C558.667 343.667 558.334 344.333 558 345L554 346C553.667 346.667 553.334 347.333 553 348L549 349V350L546 351C545.667 351.667 545.334 352.333 545 353L541 354V355L538 356C537.667 356.667 537.334 357.333 537 358L533 359C532.667 359.667 532.334 360.333 532 361H530C529.667 361.667 529.334 362.333 529 363H527V364L524 365C523.667 365.667 523.334 366.333 523 367H521C520.667 367.667 520.334 368.333 520 369H518V370L515 371C514.667 371.667 514.334 372.333 514 373H512L510 376H508V377L505 378L504 380H502L500 383H498L496 386L493 387L492 389H490L489 391H487L486 393L483 394L480 398H478L476 401H474L471 405H469L466 409H464L461 413H459L456 417H454L452 420L449 422V423H447L442 429H440L433 437C422.044 444.931 413.414 454.583 404 464C396.387 471.615 388.423 478.118 382 487L371 497V499L363 506V508L357 513V515L352 519V521L347 525V527L345 528V529L343 530V532L339 535V537L335 540V542L332 544V546L329 548V550L325 553V555L323 556V558L321 559L320 562L317 564V566L315 567V569L312 571V573H311L310 576L308 577V579L305 581V583L303 584L302 587H301V589L299 590V592L297 593V595L295 596L294 600L292 601V603L290 604V606L288 607L287 611L285 612L284 616L282 617L281 620H280L279 624H278V626L276 627L275 631L273 632L271 638L269 639L268 643H267V645L265 646V648H264V650H263V652H262V654H261L260 658L258 659L251 675H250V677H249V679H248V681H247V683H246L244 689H243V692H242V694H241V696H240L238 702H237V705H236V707H235L234 711H233V714H232L231 718H230V721H229L228 725H227V728H226V730H225V733H224V735H223C222.667 736.667 222.334 738.333 222 740H221V743H220V745H219C218.667 747 218.334 749 218 751H217V753H216C215.667 755 215.334 757 215 759H214V761H213C211.334 767 209.667 773 208 779C202.8 792.044 198.837 807.461 194 821C193.667 823.667 193.334 826.333 193 829C190.506 836.318 188.369 845.637 186 853V858H185V862H184V867H183V872H182V877H181C178.334 892.667 175.667 908.333 173 924V932H172V940H171V949H170V959H169V971H168V985H167V1007C164.443 1016.21 166 1031.01 166 1042C166 1048.55 165.6 1057.04 167 1062V1073C167.334 1081.33 167.667 1089.66 168 1098H169C169.667 1108.33 170.334 1118.66 171 1129H172V1137H173V1145H174V1152C178 1173.33 182 1194.66 186 1216H187V1220H188V1224H189V1228H190V1232H191C191.667 1236 192.334 1240 193 1244H194V1248H195L196 1255H197V1258H198C198.667 1261.33 199.333 1264.67 200 1268H201V1272H202C202.334 1274 202.667 1276 203 1278H204V1281H205V1284H206V1287H207V1290H208V1293H209V1296H210V1299H211V1302H212V1305H213V1308H214V1310H215C215.667 1313 216.334 1316 217 1319H218C218.333 1320.67 218.667 1322.33 219 1324H220V1326H221V1329H222V1331H223V1334H224C224.333 1335.67 224.667 1337.33 225 1339H226V1341H227V1344H228C228.333 1345.33 228.667 1346.67 229 1348H230V1351H231C231.333 1352.33 231.667 1353.67 232 1355H233V1358H234C234.333 1359.33 234.667 1360.67 235 1362H236V1365H237V1367H238V1369H239V1371H240L242 1377H243V1380H244L246 1386H247V1388H248V1390H249V1392H250V1394H251V1396H252V1398H253V1400H254C254.333 1401.33 254.667 1402.67 255 1404H256V1406H257V1408H258V1410C258.667 1410.33 259.333 1410.67 260 1411V1413H261V1415H262V1417H263V1419H264C264.333 1420.33 264.667 1421.67 265 1423C265.667 1423.33 266.333 1423.67 267 1424L269 1430C269.667 1430.33 270.333 1430.67 271 1431L273 1437C273.667 1437.33 274.333 1437.67 275 1438V1440H276V1442C276.667 1442.33 277.333 1442.67 278 1443L280 1449C280.667 1449.33 281.333 1449.67 282 1450C282.333 1451.33 282.667 1452.67 283 1454H284L285 1457C285.667 1457.33 286.333 1457.67 287 1458C287.333 1459.33 287.667 1460.67 288 1462C288.667 1462.33 289.333 1462.67 290 1463V1465C290.667 1465.33 291.333 1465.67 292 1466V1468C292.667 1468.33 293.333 1468.67 294 1469C294.333 1470.33 294.667 1471.67 295 1473C295.667 1473.33 296.333 1473.67 297 1474V1476H298L299 1479C299.667 1479.33 300.333 1479.67 301 1480V1482H302L303 1485C303.667 1485.33 304.333 1485.67 305 1486V1488C306 1488.67 307 1489.33 308 1490V1492H309L310 1495C310.667 1495.33 311.333 1495.67 312 1496V1498C313 1498.67 314 1499.33 315 1500V1502C315.667 1502.33 316.333 1502.67 317 1503V1505C318 1505.67 319 1506.33 320 1507V1509C321 1509.67 322 1510.33 323 1511V1513C323.667 1513.33 324.333 1513.67 325 1514V1516C326 1516.67 327 1517.33 328 1518V1520L332 1523V1525C333 1525.67 334 1526.33 335 1527V1529L339 1532V1534L343 1537V1539L347 1542V1544C348.666 1545.33 350.334 1546.67 352 1548V1550C353 1550.67 354 1551.33 355 1552V1553C355.667 1553.33 356.333 1553.67 357 1554V1556C359 1557.67 361 1559.33 363 1561V1563C365.667 1565.33 368.334 1567.66 371 1570C379.206 1581.33 389.254 1590.26 399 1600C406.615 1607.61 413.118 1615.58 422 1622C425.334 1625.67 428.667 1629.34 432 1633H434V1634C435 1634.67 436 1635.33 437 1636C438 1637.33 439 1638.67 440 1640H442L444 1643C445 1643.67 446 1644.33 447 1645V1646H449L454 1652H456C456.333 1652.67 456.667 1653.33 457 1654H458C458.333 1654.67 458.667 1655.33 459 1656H461C462.333 1657.67 463.667 1659.33 465 1661H467C468 1662.33 469 1663.67 470 1665H472C472.333 1665.67 472.667 1666.33 473 1667C474 1667.33 475 1667.67 476 1668C477 1669.33 478 1670.67 479 1672H481L483 1675H485L487 1678C488 1678.33 489 1678.67 490 1679C490.333 1679.67 490.667 1680.33 491 1681H493C493.333 1681.67 493.667 1682.33 494 1683H496C496.333 1683.67 496.667 1684.33 497 1685C498 1685.33 499 1685.67 500 1686L502 1689H504V1690C505 1690.33 506 1690.67 507 1691C507.333 1691.67 507.667 1692.33 508 1693H510L512 1696H514C514.333 1696.67 514.667 1697.33 515 1698C516 1698.33 517 1698.67 518 1699V1700H520C520.333 1700.67 520.667 1701.33 521 1702H523C523.333 1702.67 523.667 1703.33 524 1704H526C526.333 1704.67 526.667 1705.33 527 1706H529C529.333 1706.67 529.667 1707.33 530 1708H532C532.333 1708.67 532.667 1709.33 533 1710C534.333 1710.33 535.667 1710.67 537 1711V1712C538 1712.33 539 1712.67 540 1713C540.333 1713.67 540.667 1714.33 541 1715C542.333 1715.33 543.667 1715.67 545 1716V1717C546 1717.33 547 1717.67 548 1718C548.333 1718.67 548.667 1719.33 549 1720C550.333 1720.33 551.667 1720.67 553 1721C553.333 1721.67 553.667 1722.33 554 1723C555.333 1723.33 556.667 1723.67 558 1724C558.333 1724.67 558.667 1725.33 559 1726C561 1726.67 563 1727.33 565 1728C565.333 1728.67 565.667 1729.33 566 1730C567.333 1730.33 568.667 1730.67 570 1731C570.333 1731.67 570.667 1732.33 571 1733H573V1734H575V1735H577V1736H579C579.333 1736.67 579.667 1737.33 580 1738H582V1739C593.334 1744.67 604.667 1750.34 616 1756V1763C613.865 1765.32 614.974 1773.85 615 1778C616 1789.33 617 1800.66 618 1812H619V1818C624.42 1835.53 626.207 1856.01 632 1873C632.334 1876 632.667 1879 633 1882C636.245 1891.97 638.618 1904.08 642 1914C642.333 1916.67 642.667 1919.33 643 1922C647.677 1935.38 651.354 1949.08 654 1963H653C650.638 1960.98 648.222 1962.17 645 1961V1960H642V1959H638V1958H635V1957C631.667 1956.33 628.334 1955.66 625 1955V1954L612 1951V1950H608V1949H605V1948H602V1947H599V1946H596V1945H594V1944H591V1943H588V1942H585V1941H582V1940H579V1939H577V1938C575 1937.67 573 1937.33 571 1937V1936H569V1935C567 1934.67 565 1934.33 563 1934V1933H561V1932H558V1931H556V1930H553V1929H551V1928H548V1927H546V1926H543V1925H541V1924H538V1923C536.667 1922.67 535.333 1922.33 534 1922V1921H531V1920H529V1919C527.667 1918.67 526.333 1918.33 525 1918V1917H522V1916H520V1915H518V1914H516V1913H513V1912H511V1911H509V1910H507V1909C505 1908.33 503 1907.67 501 1907V1906H498V1905C496 1904.33 494 1903.67 492 1903V1902H490V1901H488V1900H486V1899H484V1898H482V1897H480V1896H478V1895H476V1894H474C473.667 1893.33 473.333 1892.67 473 1892C471.667 1891.67 470.333 1891.33 469 1891V1890H467V1889H465V1888H463V1887C461.667 1886.67 460.333 1886.33 459 1886C458.667 1885.33 458.333 1884.67 458 1884H456V1883H454V1882H452V1881H450C449.667 1880.33 449.333 1879.67 449 1879C447 1878.33 445 1877.67 443 1877V1876H441C440.667 1875.33 440.333 1874.67 440 1874C438.667 1873.67 437.333 1873.33 436 1873C435.667 1872.33 435.333 1871.67 435 1871C433.667 1870.67 432.333 1870.33 431 1870C430.667 1869.33 430.333 1868.67 430 1868C428.667 1867.67 427.333 1867.33 426 1867C425.667 1866.33 425.333 1865.67 425 1865C423.667 1864.67 422.333 1864.33 421 1864C420.667 1863.33 420.333 1862.67 420 1862H418V1861H416V1860C415 1859.67 414 1859.33 413 1859C412.667 1858.33 412.333 1857.67 412 1857C410.667 1856.67 409.333 1856.33 408 1856C407.667 1855.33 407.333 1854.67 407 1854H405C404.667 1853.33 404.333 1852.67 404 1852H402C401.667 1851.33 401.333 1850.67 401 1850H399V1849C398 1848.67 397 1848.33 396 1848C395.667 1847.33 395.333 1846.67 395 1846H393C392.667 1845.33 392.333 1844.67 392 1844H390C389.667 1843.33 389.333 1842.67 389 1842H387C386.667 1841.33 386.333 1840.67 386 1840H384C383.667 1839.33 383.333 1838.67 383 1838H381V1837C380 1836.67 379 1836.33 378 1836C377.667 1835.33 377.333 1834.67 377 1834H375L373 1831H371C370.667 1830.33 370.333 1829.67 370 1829H368L366 1826H364C363.667 1825.33 363.333 1824.67 363 1824H361C360.667 1823.33 360.333 1822.67 360 1822C359 1821.67 358 1821.33 357 1821L355 1818H353L351 1815H349L347 1812H345L343 1809H341C340 1807.67 339 1806.33 338 1805C337 1804.67 336 1804.33 335 1804C334.667 1803.33 334.333 1802.67 334 1802H332C331.667 1801.33 331.333 1800.67 331 1800H330C329.667 1799.33 329.333 1798.67 329 1798H327C325.667 1796.33 324.333 1794.67 323 1793H321C320.667 1792.33 320.333 1791.67 320 1791C319 1790.33 318 1789.67 317 1789V1788H315C313.667 1786.33 312.333 1784.67 311 1783H309L304 1777H302C300 1774.67 298 1772.34 296 1770H294L286 1761H284C279 1755.67 274 1750.34 269 1745H267C262 1739.67 257 1734.34 252 1729C250 1727.33 248 1725.67 246 1724V1722L233 1710L231 1707H230V1705C227 1702.33 224 1699.66 221 1697V1695L214 1689V1687C212 1685.33 210 1683.67 208 1682V1680C206.333 1678.67 204.667 1677.33 203 1676V1674C201.333 1672.67 199.667 1671.33 198 1670V1668C196.333 1666.67 194.667 1665.33 193 1664V1662L189 1659V1657C188 1656.33 187 1655.67 186 1655V1653L182 1650V1648C181 1647.33 180 1646.67 179 1646V1644C178 1643.33 177 1642.67 176 1642V1640C175 1639.33 174 1638.67 173 1638V1636C172 1635.33 171 1634.67 170 1634L169 1631C168.333 1630.67 167.667 1630.33 167 1630V1628C166.333 1627.67 165.667 1627.33 165 1627V1625C164 1624.33 163 1623.67 162 1623V1621C161.333 1620.67 160.667 1620.33 160 1620V1618C159 1617.33 158 1616.67 157 1616V1614C156.333 1613.67 155.667 1613.33 155 1613L154 1610H153V1608C152.333 1607.67 151.667 1607.33 151 1607V1605C150.333 1604.67 149.667 1604.33 149 1604V1602C148.333 1601.67 147.667 1601.33 147 1601V1599C146.333 1598.67 145.667 1598.33 145 1598V1596C144.333 1595.67 143.667 1595.33 143 1595V1593C142.333 1592.67 141.667 1592.33 141 1592V1590C140.333 1589.67 139.667 1589.33 139 1589V1587C138.333 1586.67 137.667 1586.33 137 1586V1584C136.333 1583.67 135.667 1583.33 135 1583C134.667 1581.67 134.333 1580.33 134 1579H133L132 1576C131.333 1575.67 130.667 1575.33 130 1575V1573H129V1571C128.333 1570.67 127.667 1570.33 127 1570C126.667 1568.67 126.333 1567.33 126 1566C125.333 1565.67 124.667 1565.33 124 1565C123.667 1563.67 123.333 1562.33 123 1561C122.333 1560.67 121.667 1560.33 121 1560C120.667 1558.67 120.333 1557.33 120 1556C119.333 1555.67 118.667 1555.33 118 1555L116 1549C115.333 1548.67 114.667 1548.33 114 1548L112 1542C111.333 1541.67 110.667 1541.33 110 1541V1539H109V1537H108V1535H107V1533C106.333 1532.67 105.667 1532.33 105 1532V1530H104V1528H103V1526H102V1524H101V1522H100C99.6672 1520.67 99.3332 1519.33 99.0002 1518C98.3332 1517.67 97.6672 1517.33 97.0002 1517V1515H96.0002V1513H95.0002V1511H94.0002V1509H93.0002V1507H92.0002V1505H91.0002V1503H90.0002V1501H89.0002V1499H88.0002L86.0002 1493H85.0002V1490H84.0002V1488H83.0002V1486H82.0002V1484H81.0002L79.0002 1478H78.0002V1475H77.0002V1473H76.0002C75.6672 1471.67 75.3332 1470.33 75.0002 1469H74.0002V1466H73.0002V1464H72.0002C71.6672 1462.67 71.3332 1461.33 71.0002 1460H70.0002V1457H69.0002C68.6672 1455.67 68.3332 1454.33 68.0002 1453H67.0002V1450H66.0002V1448H65.0002V1445H64.0002V1443H63.0002C62.6672 1441.33 62.3332 1439.67 62.0002 1438H61.0002V1435H60.0002V1433H59.0002V1430H58.0002V1428H57.0002L56.0002 1422H55.0002V1420H54.0002L53.0002 1414H52.0002V1412H51.0002V1409H50.0002V1406H49.0002V1403H48.0002V1400H47.0002V1397H46.0002V1395H45.0002C44.0002 1390.67 43.0002 1386.34 42.0002 1382H41.0002V1379H40.0002V1376H39.0002V1373H38.0002V1370H37.0002C36.3332 1366.67 35.6672 1363.33 35.0002 1360H34.0002V1356H33.0002V1353H32.0002C31.6672 1350.67 31.3332 1348.33 31.0002 1346H30.0002V1342H29.0002C28.3335 1338.33 27.6668 1334.66 27.0002 1331H26.0002C25.0002 1325.33 24.0002 1319.66 23.0002 1314H22.0002V1310H21.0002V1306H20.0002L19.0002 1297H18.0002C17.6672 1293.67 17.3332 1290.33 17.0002 1287H16.0002C15.6672 1283.67 15.3332 1280.33 15.0002 1277H14.0002V1271H13.0002V1266H12.0002V1260H11.0002V1254C9.30017 1248.29 8.70017 1239.82 7.00017 1234C6.00017 1223 5.00017 1212 4.00017 1201H3.00017V1191H2.00017V1178H1.00017V1163C-1.80683 1152.95 0.000175118 1136.87 0.000175118 1125V1083C0.000175118 1075.57 -0.639825 1065.8 1.00017 1060V1045H2.00017V1032H3.00017V1022H4.00017V1013H5.00017V1004C6.88017 997.522 7.13417 988.387 9.00017 982V975H10.0002V969H11.0002V963H12.0002V957H13.0002V952H14.0002V946H15.0002L17.0002 931C21.2242 917.65 23.4322 901.754 28.0002 889L30.0002 877H31.0002L34.0002 863H35.0002L37.0002 853H38.0002V850H39.0002V847H40.0002V844H41.0002V841H42.0002V837H43.0002L45.0002 828H46.0002V826H47.0002L48.0002 820H49.0002L51.0002 811H52.0002V809H53.0002L54.0002 803H55.0002V801H56.0002L57.0002 795H58.0002L59.0002 790H60.0002V788H61.0002V785H62.0002V783H63.0002V780H64.0002L65.0002 775H66.0002V773H67.0002V770H68.0002L69.0002 766H70.0002V763H71.0002V761H72.0002L73.0002 757H74.0002V754H75.0002V752H76.0002V750H77.0002V748H78.0002V745H79.0002V743H80.0002V741H81.0002V739H82.0002L84.0002 733H85.0002V730H86.0002L88.0002 724H89.0002V722H90.0002V720H91.0002V718H92.0002V716H93.0002V714H94.0002V712H95.0002V710H96.0002V708H97.0002V706L99.0002 705L100 701H101V699H102V697H103V695H104L105 691L107 690V688H108V686H109V684H110V682L112 681V679H113V677H114V675H115V673L117 672L118 668L120 667L121 663L123 662L124 658L126 657L127 653L129 652L130 648H131L132 645L134 644L135 640L137 639V637L139 636V634L141 633V631H142L143 628L145 627V625L147 624V622L149 621V619L151 618V616L153 615V613H154L155 610L157 609V607L160 605V603L162 602V600L165 598V596L167 595V593L169 592L170 589L173 587V585L176 583V581L179 579V577L182 575V573L186 570L187 567L189 566V564L193 561V559L198 555V553L202 550V548L208 543V541L214 536V534L221 528V526L230 518V516L246 501V499L262 484L267 478H269L277 469L283 464L284 462H286L294 453H296L302 446H304L309 440H311L315 435H317L321 430H323L327 425H329L332 421H334L335 419L338 418L341 414H343L345 411H347L349 408H351L353 405H355L357 402L360 401L361 399H363L364 397H366L368 394H370L371 392H373L375 389H377L378 387L381 386V385H383L384 383H386L387 381H389L390 379H392L393 377H395L396 375H398L399 373H401L402 371H404L405 369H407L408 367L412 366L413 364H415L416 362L420 361L421 359L425 358L426 356L430 355L431 353L435 352L436 350L440 349L441 347H443V346H445V345H447V344H449L450 342H452V341H454V340H456V339H458L459 337H461V336H463V335H465V334H467V333H469V332L473 331L474 329H476V328H478V327H480V326H482V325H484V324H486V323H488V322H490V321H492V320L498 318V317H501V316H503V315H505V314H507V313L513 311V310H516V309H518V308L522 307V306H525V305H527V304L531 303V302H534V301L538 300V299H541V298H543V297H546V296H548V295H551V294H553V293H556V292H558V291H561V290H563V289L569 288V287H571V286L577 285V284H579V283H582V282H585V281H588V280H591V279H594V278H596V277H599V276H602V275H605V274H608V273L625 269V268H628V267H631V266L638 265V264L645 263V262L656 260V259L668 257V256L685 253V252H690C697.08 249.711 706.729 248.208 714 246L772 237H781V236H790V235H800V234H813V233H828V232C834.124 230.261 845.815 234.7 850 231ZM1584 574C1585.51 575.676 1585 579.827 1585 583V611H1584V633H1583V649H1582V661H1581V672H1580V682C1577.28 691.369 1577.68 703.839 1575 713V720C1572.51 728.329 1571.53 738.917 1569 747C1568.67 750.333 1568.33 753.667 1568 757H1567V761H1566V765H1565V769H1564V773H1563C1562.67 775.666 1562.33 778.334 1562 781H1561C1560.67 783.333 1560.33 785.667 1560 788H1559V791H1558V794H1557V797H1556V800H1555C1554.67 802.333 1554.33 804.667 1554 807H1553V809H1552V812H1551C1550.33 815 1549.67 818 1549 821H1548V823H1547C1546.67 825 1546.33 827 1546 829H1545V831H1544V834H1543V837C1528.46 870.167 1513.5 903.688 1495 933C1494.33 935 1493.67 937 1493 939C1492.33 939.333 1491.67 939.667 1491 940C1490.67 941.333 1490.33 942.667 1490 944C1489.33 944.333 1488.67 944.667 1488 945C1487.67 946.333 1487.33 947.667 1487 949H1486C1485.67 950 1485.33 951 1485 952C1484.33 952.333 1483.67 952.667 1483 953C1482.67 954.333 1482.33 955.667 1482 957H1481C1480.67 958 1480.33 959 1480 960C1479.33 960.333 1478.67 960.667 1478 961C1477.67 962.333 1477.33 963.667 1477 965H1476C1475.67 966 1475.33 967 1475 968C1474.33 968.333 1473.67 968.667 1473 969V971H1472C1471.67 972 1471.33 973 1471 974C1470.33 974.333 1469.67 974.667 1469 975V977L1466 979V981H1465C1464.67 982 1464.33 983 1464 984C1463.33 984.333 1462.67 984.667 1462 985V987L1459 989V991L1456 993V995C1454.67 996 1453.33 997 1452 998C1451.67 999 1451.33 1000 1451 1001C1450.33 1001.33 1449.67 1001.67 1449 1002V1004C1448.33 1004.33 1447.67 1004.67 1447 1005C1446.33 1006 1445.67 1007 1445 1008H1444V1010C1442.33 1011.33 1440.67 1012.67 1439 1014V1016C1436.67 1018 1434.34 1020 1432 1022V1024C1427.33 1028.33 1422.66 1032.66 1418 1037V1039C1416.33 1040.33 1414.67 1041.67 1413 1043C1412.67 1043.67 1412.33 1044.33 1412 1045H1410C1404.33 1051 1398.66 1057 1393 1063H1391C1387.67 1066.67 1384.34 1070.34 1381 1074H1379C1376.67 1076.67 1374.34 1079.34 1372 1082H1370C1367.67 1084.67 1365.34 1087.34 1363 1090H1361C1359 1092.33 1357 1094.66 1355 1097H1353C1351.33 1099 1349.67 1101 1348 1103H1346C1344 1105.33 1342 1107.66 1340 1110H1338C1336.67 1111.67 1335.33 1113.33 1334 1115H1332C1330.33 1117 1328.67 1119 1327 1121H1325C1323.67 1122.67 1322.33 1124.33 1321 1126H1319C1317.67 1127.67 1316.33 1129.33 1315 1131H1313C1312.67 1131.67 1312.33 1132.33 1312 1133H1311C1310.67 1133.67 1310.33 1134.33 1310 1135H1308C1306.67 1136.67 1305.33 1138.33 1304 1140H1302C1301 1141.33 1300 1142.67 1299 1144H1297C1295.67 1145.67 1294.33 1147.33 1293 1149H1291C1290 1150.33 1289 1151.67 1288 1153H1286C1284.67 1154.67 1283.33 1156.33 1282 1158H1280C1279 1159.33 1278 1160.67 1277 1162H1275C1274 1163.33 1273 1164.67 1272 1166H1270C1268.67 1167.67 1267.33 1169.33 1266 1171H1264C1263 1172.33 1262 1173.67 1261 1175H1259C1258 1176.33 1257 1177.67 1256 1179H1254C1252.67 1180.67 1251.33 1182.33 1250 1184H1248C1247.67 1184.67 1247.33 1185.33 1247 1186H1246C1245.67 1186.67 1245.33 1187.33 1245 1188H1243C1241.67 1189.67 1240.33 1191.33 1239 1193H1237C1236 1194.33 1235 1195.67 1234 1197H1232C1231 1198.33 1230 1199.67 1229 1201H1227C1225.67 1202.67 1224.33 1204.33 1223 1206H1221C1220.67 1206.67 1220.33 1207.33 1220 1208H1219C1218.67 1208.67 1218.33 1209.33 1218 1210H1216C1214.67 1211.67 1213.33 1213.33 1212 1215H1210C1209 1216.33 1208 1217.67 1207 1219H1205C1204 1220.33 1203 1221.67 1202 1223H1200C1198.67 1224.67 1197.33 1226.33 1196 1228H1194C1193 1229.33 1192 1230.67 1191 1232H1189C1188 1233.33 1187 1234.67 1186 1236H1184C1182.67 1237.67 1181.33 1239.33 1180 1241H1178C1177 1242.33 1176 1243.67 1175 1245H1173C1171.67 1246.67 1170.33 1248.33 1169 1250H1167C1166 1251.33 1165 1252.67 1164 1254H1162C1160.33 1256 1158.67 1258 1157 1260H1155C1153.33 1262 1151.67 1264 1150 1266H1148C1146.33 1268 1144.67 1270 1143 1272H1141C1138.67 1274.67 1136.34 1277.34 1134 1280H1132C1129.67 1282.67 1127.34 1285.34 1125 1288H1123C1120.67 1290.67 1118.34 1293.34 1116 1296C1115 1296.33 1114 1296.67 1113 1297C1109 1301.33 1105 1305.66 1101 1310H1099C1091 1318.33 1083 1326.66 1075 1335C1063.56 1343.27 1054.85 1354.15 1045 1364C1033.87 1375.13 1022.37 1385.02 1013 1398C1011.33 1399.33 1009.67 1400.67 1008 1402V1404C1007.33 1404.33 1006.67 1404.67 1006 1405C1005.33 1406 1004.67 1407 1004 1408H1003V1410C1001.33 1411.33 999.667 1412.67 998 1414V1416C996.333 1417.33 994.667 1418.67 993 1420V1422C992.333 1422.33 991.667 1422.67 991 1423V1424C990.333 1424.33 989.667 1424.67 989 1425V1427L985 1430V1432C984.333 1432.33 983.667 1432.67 983 1433V1434C982.333 1434.33 981.667 1434.67 981 1435V1437C980.333 1437.33 979.667 1437.67 979 1438C978.667 1439 978.334 1440 978 1441L974 1444V1446C973.333 1446.33 972.667 1446.67 972 1447C971.667 1448 971.334 1449 971 1450L967 1453V1455C966 1455.67 965 1456.33 964 1457V1459C963 1459.67 962 1460.33 961 1461V1463C960 1463.67 959 1464.33 958 1465C957.667 1466 957.334 1467 957 1468C956.333 1468.33 955.667 1468.67 955 1469V1471C954.333 1471.33 953.667 1471.67 953 1472V1474C952 1474.67 951 1475.33 950 1476V1478C949 1478.67 948 1479.33 947 1480V1482H946C945.667 1483 945.334 1484 945 1485C944.333 1485.33 943.667 1485.67 943 1486V1488C942 1488.67 941 1489.33 940 1490V1492C939.333 1492.33 938.667 1492.67 938 1493C937.667 1494 937.334 1495 937 1496H936V1498C935.333 1498.33 934.667 1498.67 934 1499V1501C933.333 1501.33 932.667 1501.67 932 1502V1504C931.333 1504.33 930.667 1504.67 930 1505V1507C929.333 1507.33 928.667 1507.67 928 1508V1510C927.333 1510.33 926.667 1510.67 926 1511V1513C925.333 1513.33 924.667 1513.67 924 1514C923.667 1515.33 923.333 1516.67 923 1518C922.333 1518.33 921.667 1518.67 921 1519V1521C920.333 1521.33 919.667 1521.67 919 1522C918.667 1523 918.334 1524 918 1525H917C916.667 1526.33 916.333 1527.67 916 1529H915C914.667 1530 914.334 1531 914 1532C913.333 1532.33 912.667 1532.67 912 1533V1535H911V1537C910.333 1537.33 909.667 1537.67 909 1538C908.667 1539.33 908.333 1540.67 908 1542H907C906.667 1543 906.334 1544 906 1545C905.333 1545.33 904.667 1545.67 904 1546V1548H903V1550C902.333 1550.33 901.667 1550.67 901 1551C900.334 1553 899.667 1555 899 1557C898.333 1557.33 897.667 1557.67 897 1558C896.667 1559.33 896.333 1560.67 896 1562C895.333 1562.33 894.667 1562.67 894 1563C893.334 1565 892.667 1567 892 1569C891.333 1569.33 890.667 1569.67 890 1570V1572H889V1574H888V1576H887V1578C886.333 1578.33 885.667 1578.67 885 1579V1581H884V1583H883V1585H882V1587C881.333 1587.33 880.667 1587.67 880 1588V1590H879V1592H878V1594H877V1596H876V1598H875V1600H874V1602H873C872.667 1603.33 872.333 1604.67 872 1606H871V1608H870V1610H869V1612H868V1614H867V1616H866C865.667 1617.33 865.333 1618.67 865 1620H864V1622H863V1625H862V1627H861C860.334 1629 859.667 1631 859 1633H858V1636H857C856.667 1637.33 856.333 1638.67 856 1640H855V1643H854C853.667 1644.33 853.333 1645.67 853 1647H852V1650H851V1652H850V1655H849V1657H848C847.667 1659 847.334 1661 847 1663H846V1665H845C844.334 1668 843.667 1671 843 1674H842V1676H841C840.667 1678 840.334 1680 840 1682H839V1686H838V1689H837V1692H836L835 1699H834L833 1706H832V1710H831C830.334 1714 829.667 1718 829 1722H828C827.334 1726.33 826.667 1730.66 826 1735H825C821.667 1754.66 818.334 1774.33 815 1794C814.667 1799.33 814.334 1804.66 814 1810H813V1820H812V1832H811V1848C808.848 1855.75 808.822 1887.26 811 1895V1915H812V1930H813V1943H814V1954H815V1965H816C816.334 1970.67 816.667 1976.34 817 1982L831 2058C834.521 2068.85 836.341 2082.24 840 2093C840.333 2095.67 840.667 2098.33 841 2101C844.4 2110.91 846.62 2123.09 850 2133C850.333 2135.67 850.667 2138.33 851 2141C858.091 2160.66 863.426 2182.01 871 2201V2204H872V2207H873V2210H874V2213H875V2216H876C876.334 2218 876.667 2220 877 2222H878V2224H879C879.667 2227 880.334 2230 881 2233H882C882.667 2236 883.334 2239 884 2242H885V2244H886C886.667 2247 887.334 2250 888 2253H889V2255H890C890.334 2257 890.667 2259 891 2261H892V2263H893C893.334 2265 893.667 2267 894 2269H895V2271H896V2274H897V2276H898C898.334 2278 898.667 2280 899 2282H900V2284H901V2287H902C902.333 2288.67 902.667 2290.33 903 2292H904V2294H905V2297H906C906.333 2298.33 906.667 2299.67 907 2301H908V2304H909V2306H910C910.333 2307.67 910.667 2309.33 911 2311H912V2314H913C913.333 2315.33 913.667 2316.67 914 2318H915V2321H916C916.333 2322.33 916.667 2323.67 917 2325H918V2328H919V2330H920V2333H921C921.333 2334.33 921.667 2335.67 922 2337H923V2339H924V2342H925C925.333 2343.33 925.667 2344.67 926 2346H927V2349H928L931 2358H930V2356C926.631 2353.88 926.224 2351.15 924 2348C923 2347.33 922 2346.67 921 2346V2344C920 2343.33 919 2342.67 918 2342V2340C917 2339.33 916 2338.67 915 2338V2336C914.333 2335.67 913.667 2335.33 913 2335C912.667 2334 912.334 2333 912 2332C911 2331.33 910 2330.67 909 2330V2328C908 2327.33 907 2326.67 906 2326V2324C905.333 2323.67 904.667 2323.33 904 2323V2321C903.333 2320.67 902.667 2320.33 902 2320C901.667 2319 901.334 2318 901 2317C900 2316.33 899 2315.67 898 2315V2313C897 2312.33 896 2311.67 895 2311V2309C894.333 2308.67 893.667 2308.33 893 2308V2306C892 2305.33 891 2304.67 890 2304V2302C889.333 2301.67 888.667 2301.33 888 2301V2299C887 2298.33 886 2297.67 885 2297V2295C884.333 2294.67 883.667 2294.33 883 2294V2292C882 2291.33 881 2290.67 880 2290V2288H879C878.667 2287 878.334 2286 878 2285C877.333 2284.67 876.667 2284.33 876 2284V2282C875 2281.33 874 2280.67 873 2280V2278H872C871.667 2277 871.334 2276 871 2275C870.333 2274.67 869.667 2274.33 869 2274V2272C868 2271.33 867 2270.67 866 2270V2268C865.333 2267.67 864.667 2267.33 864 2267C863.667 2266 863.334 2265 863 2264H862V2262C861.333 2261.67 860.667 2261.33 860 2261V2259C859.333 2258.67 858.667 2258.33 858 2258V2256C857 2255.33 856 2254.67 855 2254V2252C854.333 2251.67 853.667 2251.33 853 2251C852.667 2250 852.334 2249 852 2248H851V2246C850.333 2245.67 849.667 2245.33 849 2245V2243C848.333 2242.67 847.667 2242.33 847 2242V2240C846.333 2239.67 845.667 2239.33 845 2239V2237C844.333 2236.67 843.667 2236.33 843 2236V2234C842.333 2233.67 841.667 2233.33 841 2233V2231C840.333 2230.67 839.667 2230.33 839 2230C838.667 2228.67 838.333 2227.33 838 2226C837.333 2225.67 836.667 2225.33 836 2225V2223C835.333 2222.67 834.667 2222.33 834 2222V2220C833.333 2219.67 832.667 2219.33 832 2219V2217C831.333 2216.67 830.667 2216.33 830 2216C829.667 2214.67 829.333 2213.33 829 2212C828.333 2211.67 827.667 2211.33 827 2211V2209C826.333 2208.67 825.667 2208.33 825 2208V2206C824.333 2205.67 823.667 2205.33 823 2205V2203H822V2201C821.333 2200.67 820.667 2200.33 820 2200C819.667 2198.67 819.333 2197.33 819 2196H818C817.667 2195 817.334 2194 817 2193C816.333 2192.67 815.667 2192.33 815 2192C814.667 2190.67 814.333 2189.33 814 2188C813.333 2187.67 812.667 2187.33 812 2187C811.334 2185 810.667 2183 810 2181C809.333 2180.67 808.667 2180.33 808 2180V2178H807V2176C806.333 2175.67 805.667 2175.33 805 2175C804.334 2173 803.667 2171 803 2169C802.333 2168.67 801.667 2168.33 801 2168C800.334 2166 799.667 2164 799 2162C798.333 2161.67 797.667 2161.33 797 2161V2159H796V2157H795V2155H794V2153C793.333 2152.67 792.667 2152.33 792 2152V2150H791V2148H790V2146H789V2144H788V2142C787.333 2141.67 786.667 2141.33 786 2141V2139H785V2137H784V2135H783V2133H782V2131H781C780.667 2129.67 780.333 2128.33 780 2127C779.333 2126.67 778.667 2126.33 778 2126C775.667 2120.67 773.334 2115.34 771 2110H770C769.667 2108.67 769.333 2107.33 769 2106H768C767.667 2104.67 767.333 2103.33 767 2102H766V2100H765V2098H764V2096H763V2094H762V2092H761C760.667 2090.67 760.333 2089.33 760 2088H759V2086H758V2083H757V2081H756V2079H755C754.334 2077 753.667 2075 753 2073H752V2070H751V2068H750C749.667 2066.67 749.333 2065.33 749 2064H748V2061H747C746.667 2059.67 746.333 2058.33 746 2057H745V2054H744C743.667 2052.67 743.333 2051.33 743 2050H742V2047H741C740.667 2045.67 740.333 2044.33 740 2043H739V2040H738V2038H737C736.667 2036.33 736.333 2034.67 736 2033H735V2030H734V2028H733V2025H732V2023H731C730.667 2021.33 730.333 2019.67 730 2018H729C728.667 2016 728.334 2014 728 2012H727V2010H726C725.334 2007 724.667 2004 724 2001H723V1999H722V1996H721V1993H720V1990H719V1987H718V1985H717C716.333 1981.67 715.667 1978.33 715 1975H714V1972H713V1969H712V1966H711V1963H710V1959H709V1956H708V1953H707V1949C698.606 1925.86 693.742 1899.06 686 1875V1870H685V1866H684V1862H683V1858H682V1853H681L680 1843H679C678.334 1836.67 677.667 1830.34 677 1824C673.764 1812.88 674.228 1798.28 671 1787V1778H670V1768H669C668.667 1760 668.334 1752 668 1744H667V1727C664.126 1716.66 666 1700.18 666 1688C666 1681.15 665.524 1672.24 667 1667V1656C667.334 1648.33 667.667 1640.66 668 1633H669C669.334 1625.33 669.667 1617.66 670 1610C673.593 1597.53 672.426 1581.29 676 1569C676.334 1564.67 676.667 1560.34 677 1556C679.228 1548.74 680.719 1539.08 683 1532V1527H684V1523H685C685.667 1519.33 686.334 1515.66 687 1512H688V1509H689V1506H690V1502H691V1499H692V1496H693V1493H694V1491H695C695.334 1489 695.667 1487 696 1485H697V1483H698C698.334 1481 698.667 1479 699 1477H700V1475H701V1472H702V1470H703V1467H704C704.333 1465.67 704.667 1464.33 705 1463H706V1460H707C707.333 1458.67 707.667 1457.33 708 1456H709V1453H710V1451H711C711.333 1449.67 711.667 1448.33 712 1447H713V1444H714C714.333 1442.67 714.667 1441.33 715 1440H716V1438H717V1436H718C718.667 1434 719.334 1432 720 1430H721V1427H722V1425H723C723.333 1423.67 723.667 1422.33 724 1421H725V1419H726V1417H727V1415H728V1413H729V1411H730V1409H731V1407H732V1405H733V1403H734V1401H735V1399C735.667 1398.67 736.333 1398.33 737 1398C737.333 1396.67 737.667 1395.33 738 1394H739V1392H740V1390H741V1388H742V1386C742.667 1385.67 743.333 1385.33 744 1385C744.667 1383 745.334 1381 746 1379C746.667 1378.67 747.333 1378.33 748 1378C748.667 1376 749.334 1374 750 1372C750.667 1371.67 751.333 1371.33 752 1371C752.333 1369.67 752.667 1368.33 753 1367C753.667 1366.67 754.333 1366.33 755 1366C755.333 1364.67 755.667 1363.33 756 1362C756.667 1361.67 757.333 1361.33 758 1361C758.333 1359.67 758.667 1358.33 759 1357C759.667 1356.67 760.333 1356.33 761 1356V1354C761.667 1353.67 762.333 1353.33 763 1353V1351C763.667 1350.67 764.333 1350.33 765 1350C765.333 1348.67 765.667 1347.33 766 1346H767C767.334 1345 767.667 1344 768 1343C768.667 1342.67 769.333 1342.33 770 1342V1340H771C771.334 1339 771.667 1338 772 1337C772.667 1336.67 773.333 1336.33 774 1336V1334C775 1333.33 776 1332.67 777 1332V1330H778C778.334 1329 778.667 1328 779 1327C779.667 1326.67 780.333 1326.33 781 1326V1324C782 1323.33 783 1322.67 784 1322V1320C785 1319.33 786 1318.67 787 1318V1316C788 1315.33 789 1314.67 790 1314V1312C791 1311.33 792 1310.67 793 1310V1308C794.667 1306.67 796.333 1305.33 798 1304V1302L802 1299V1297C803.667 1295.67 805.333 1294.33 807 1293V1291L814 1285V1283C816.667 1280.67 819.334 1278.34 822 1276V1274C827.667 1268.67 833.334 1263.34 839 1258V1256C841 1254.33 843 1252.67 845 1251C848 1247.67 851 1244.34 854 1241H856V1240C857 1239.33 858 1238.67 859 1238L864 1232H866C868 1229.67 870 1227.34 872 1225H874V1224C875 1223.33 876 1222.67 877 1222L879 1219H881C882.333 1217.33 883.667 1215.67 885 1214H887C888 1212.67 889 1211.33 890 1210H892C893 1208.67 894 1207.33 895 1206H897C898 1204.67 899 1203.33 900 1202H902C903 1200.67 904 1199.33 905 1198H907L909 1195H911C912 1193.67 913 1192.33 914 1191H916C916.333 1190.33 916.667 1189.67 917 1189H919L921 1186H923L925 1183C926 1182.67 927 1182.33 928 1182C928.333 1181.33 928.667 1180.67 929 1180H931C931.333 1179.33 931.667 1178.67 932 1178H934V1177C935 1176.67 936 1176.33 937 1176C937.333 1175.33 937.667 1174.67 938 1174H940L942 1171H944C944.333 1170.33 944.667 1169.67 945 1169C946 1168.67 947 1168.33 948 1168V1167H950C950.333 1166.33 950.667 1165.67 951 1165C952.333 1164.67 953.667 1164.33 955 1164C955.333 1163.33 955.667 1162.67 956 1162H958V1161C959 1160.67 960 1160.33 961 1160C961.333 1159.33 961.667 1158.67 962 1158H964C964.333 1157.33 964.667 1156.67 965 1156C966 1155.67 967 1155.33 968 1155V1154C969.333 1153.67 970.667 1153.33 972 1153V1152C973 1151.67 974 1151.33 975 1151C975.333 1150.33 975.667 1149.67 976 1149H978V1148H980C980.333 1147.33 980.667 1146.67 981 1146C982.333 1145.67 983.667 1145.33 985 1145C985.333 1144.33 985.667 1143.67 986 1143C987.333 1142.67 988.667 1142.33 990 1142C990.333 1141.33 990.667 1140.67 991 1140C992.333 1139.67 993.667 1139.33 995 1139C995.333 1138.33 995.667 1137.67 996 1137C997.333 1136.67 998.667 1136.33 1000 1136C1000.33 1135.33 1000.67 1134.67 1001 1134C1002.33 1133.67 1003.67 1133.33 1005 1133C1005.33 1132.33 1005.67 1131.67 1006 1131C1007.33 1130.67 1008.67 1130.33 1010 1130C1010.33 1129.33 1010.67 1128.67 1011 1128H1013V1127H1015V1126H1017C1017.33 1125.33 1017.67 1124.67 1018 1124H1020V1123H1022V1122H1024V1121H1026C1026.33 1120.33 1026.67 1119.67 1027 1119H1029V1118H1031V1117H1033V1116H1035V1115H1037V1114H1039V1113H1041V1112H1043C1043.33 1111.33 1043.67 1110.67 1044 1110C1045.33 1109.67 1046.67 1109.33 1048 1109V1108H1050V1107H1052V1106H1054V1105H1056V1104H1058V1103H1060V1102H1062V1101H1064V1100H1066V1099H1068C1068.33 1098.33 1068.67 1097.67 1069 1097H1071V1096H1073V1095H1075V1094H1077V1093H1079V1092H1081V1091H1083V1090C1084.33 1089.67 1085.67 1089.33 1087 1089C1087.33 1088.33 1087.67 1087.67 1088 1087H1090V1086H1092V1085H1094V1084H1096V1083H1098V1082C1099.33 1081.67 1100.67 1081.33 1102 1081C1102.33 1080.33 1102.67 1079.67 1103 1079H1105V1078H1107V1077H1109V1076H1111V1075H1113V1074C1114.33 1073.67 1115.67 1073.33 1117 1073C1117.33 1072.33 1117.67 1071.67 1118 1071H1120V1070H1122V1069H1124V1068H1126V1067C1127.33 1066.67 1128.67 1066.33 1130 1066C1130.33 1065.33 1130.67 1064.67 1131 1064H1133V1063H1135V1062H1137V1061H1139V1060H1141C1141.33 1059.33 1141.67 1058.67 1142 1058H1144V1057H1146V1056H1148V1055H1150V1054H1152C1152.33 1053.33 1152.67 1052.67 1153 1052H1155V1051H1157V1050H1159V1049H1161C1161.33 1048.33 1161.67 1047.67 1162 1047H1164V1046H1166V1045H1168V1044H1170C1170.33 1043.33 1170.67 1042.67 1171 1042H1173V1041H1175V1040H1177V1039H1179C1179.33 1038.33 1179.67 1037.67 1180 1037C1182 1036.33 1184 1035.67 1186 1035C1186.33 1034.33 1186.67 1033.67 1187 1033H1189V1032H1191V1031H1193V1030H1195C1195.33 1029.33 1195.67 1028.67 1196 1028C1198 1027.33 1200 1026.67 1202 1026C1202.33 1025.33 1202.67 1024.67 1203 1024C1205 1023.33 1207 1022.67 1209 1022C1209.33 1021.33 1209.67 1020.67 1210 1020C1212 1019.33 1214 1018.67 1216 1018C1216.33 1017.33 1216.67 1016.67 1217 1016C1218.33 1015.67 1219.67 1015.33 1221 1015C1221.33 1014.33 1221.67 1013.67 1222 1013C1223.33 1012.67 1224.67 1012.33 1226 1012C1226.33 1011.33 1226.67 1010.67 1227 1010C1228.33 1009.67 1229.67 1009.33 1231 1009C1231.33 1008.33 1231.67 1007.67 1232 1007C1233.33 1006.67 1234.67 1006.33 1236 1006V1005C1237 1004.67 1238 1004.33 1239 1004C1239.33 1003.33 1239.67 1002.67 1240 1002H1242V1001H1244C1244.33 1000.33 1244.67 999.667 1245 999L1249 998C1249.33 997.333 1249.67 996.667 1250 996H1252C1252.33 995.333 1252.67 994.667 1253 994H1255C1255.33 993.333 1255.67 992.667 1256 992L1260 991C1260.33 990.333 1260.67 989.667 1261 989H1263C1263.33 988.333 1263.67 987.667 1264 987H1266C1266.33 986.333 1266.67 985.667 1267 985H1269C1269.33 984.333 1269.67 983.667 1270 983H1272C1272.33 982.333 1272.67 981.667 1273 981H1275C1275.33 980.333 1275.67 979.667 1276 979H1278C1278.33 978.333 1278.67 977.667 1279 977H1281V976L1284 975C1284.33 974.333 1284.67 973.667 1285 973H1287C1287.33 972.333 1287.67 971.667 1288 971H1290V970L1293 969C1293.33 968.333 1293.67 967.667 1294 967H1296C1296.67 966 1297.33 965 1298 964H1300C1300.33 963.333 1300.67 962.667 1301 962H1303C1303.67 961 1304.33 960 1305 959H1307C1307.33 958.333 1307.67 957.667 1308 957H1310C1310.33 956.333 1310.67 955.667 1311 955L1314 954C1314.67 953 1315.33 952 1316 951H1318C1318.67 950 1319.33 949 1320 948H1322C1322.67 947 1323.33 946 1324 945H1326C1326.67 944 1327.33 943 1328 942H1330L1333 938H1335C1335.33 937.333 1335.67 936.667 1336 936H1337C1337.33 935.333 1337.67 934.667 1338 934H1340L1343 930H1345C1346.67 928 1348.33 926 1350 924H1352L1358 917C1368.48 909.411 1376.04 900.934 1385 892C1392.68 884.34 1400.35 876.673 1408 869L1417 861V859L1423 854V852C1423.67 851.667 1424.33 851.333 1425 851V850L1428 848V846C1428.67 845.667 1429.33 845.333 1430 845V844C1430.67 843.667 1431.33 843.333 1432 843V841C1433.67 839.667 1435.33 838.333 1437 837V835C1438.33 834 1439.67 833 1441 832V830C1441.67 829.667 1442.33 829.333 1443 829C1443.33 828 1443.67 827 1444 826C1445.33 825 1446.67 824 1448 823V821C1449.33 820 1450.67 819 1452 818V816L1455 814V812L1458 810V808L1461 806V804L1464 802V800L1467 798V796L1470 794V792L1473 790V788C1473.67 787.667 1474.33 787.333 1475 787V785L1478 783V781H1479C1479.33 780 1479.67 779 1480 778C1480.67 777.667 1481.33 777.333 1482 777V775L1485 773V771C1485.67 770.667 1486.33 770.333 1487 770C1487.33 769 1487.67 768 1488 767H1489V765C1489.67 764.667 1490.33 764.333 1491 764V762C1491.67 761.667 1492.33 761.333 1493 761V759C1493.67 758.667 1494.33 758.333 1495 758V756C1495.67 755.667 1496.33 755.333 1497 755V753C1497.67 752.667 1498.33 752.333 1499 752V750C1499.67 749.667 1500.33 749.333 1501 749V747C1501.67 746.667 1502.33 746.333 1503 746V744C1503.67 743.667 1504.33 743.333 1505 743V741H1506V739C1506.67 738.667 1507.33 738.333 1508 738C1508.33 736.667 1508.67 735.333 1509 734C1509.67 733.667 1510.33 733.333 1511 733C1511.33 731.667 1511.67 730.333 1512 729C1512.67 728.667 1513.33 728.333 1514 728C1514.33 726.667 1514.67 725.333 1515 724C1515.67 723.667 1516.33 723.333 1517 723C1517.33 721.667 1517.67 720.333 1518 719C1518.67 718.667 1519.33 718.333 1520 718C1520.67 716 1521.33 714 1522 712C1522.67 711.667 1523.33 711.333 1524 711V709H1525V707H1526V705H1527V703H1528V701C1528.67 700.667 1529.33 700.333 1530 700C1530.33 698.667 1530.67 697.333 1531 696H1532V694H1533V692H1534V690H1535V688H1536V686H1537C1537.33 684.667 1537.67 683.333 1538 682H1539C1539.33 680.667 1539.67 679.333 1540 678H1541C1541.33 676.667 1541.67 675.333 1542 674H1543V672H1544V670H1545V668H1546V666H1547V664H1548C1548.33 662.667 1548.67 661.333 1549 660H1550V658H1551V655H1552V653H1553C1553.67 651 1554.33 649 1555 647H1556V644H1557V642H1558C1558.33 640.667 1558.67 639.333 1559 638H1560V635H1561C1561.33 633.667 1561.67 632.333 1562 631H1563V628H1564C1564.33 626.667 1564.67 625.333 1565 624H1566V621H1567V619H1568C1568.33 617.333 1568.67 615.667 1569 614H1570V611H1571V609H1572V606H1573V604H1574C1574.33 602.333 1574.67 600.667 1575 599H1576C1576.33 597 1576.67 595 1577 593C1579.48 587.308 1583.15 581.449 1584 574ZM867 1830C873.742 1830.02 880.708 1830.5 886 1832H898V1833C916.667 1833.67 935.334 1834.34 954 1835C964.97 1835 979.817 1836.59 989 1834C995.06 1832.29 1004.55 1834.54 1010 1833H1024V1832H1036V1831H1046V1830H1055C1061.48 1828.12 1070.61 1827.86 1077 1826H1084C1103 1822.33 1122 1818.66 1141 1815C1150.72 1811.83 1162.48 1809.27 1172 1806H1176V1805H1179V1804H1183C1203.66 1797 1224.33 1790 1245 1783V1782H1247V1781H1250V1780H1252V1779H1255V1778H1257V1777H1260V1776C1261.67 1775.67 1263.33 1775.33 1265 1775V1774H1267V1773H1270V1772C1271.33 1771.67 1272.67 1771.33 1274 1771V1770H1276V1769H1279V1768H1281V1767C1282.33 1766.67 1283.67 1766.33 1285 1766V1765H1288V1764H1290V1763H1292V1762C1294 1761.33 1296 1760.67 1298 1760V1759H1301C1319.33 1749.33 1337.66 1739.66 1356 1730C1356.33 1729.33 1356.67 1728.67 1357 1728C1359 1727.33 1361 1726.67 1363 1726C1363.33 1725.33 1363.67 1724.67 1364 1724C1365.33 1723.67 1366.67 1723.33 1368 1723C1368.33 1722.33 1368.67 1721.67 1369 1721C1370.33 1720.67 1371.67 1720.33 1373 1720C1373.33 1719.33 1373.67 1718.67 1374 1718H1376C1376.33 1717.33 1376.67 1716.67 1377 1716C1378.33 1715.67 1379.67 1715.33 1381 1715V1714C1382 1713.67 1383 1713.33 1384 1713C1384.33 1712.33 1384.67 1711.67 1385 1711C1386.33 1710.67 1387.67 1710.33 1389 1710C1389.33 1709.33 1389.67 1708.67 1390 1708H1392C1392.33 1707.33 1392.67 1706.67 1393 1706H1395V1705C1396 1704.67 1397 1704.33 1398 1704C1398.33 1703.33 1398.67 1702.67 1399 1702H1401C1401.33 1701.33 1401.67 1700.67 1402 1700H1404V1699C1405 1698.67 1406 1698.33 1407 1698C1407.33 1697.33 1407.67 1696.67 1408 1696H1410C1410.67 1695 1411.33 1694 1412 1693H1414V1692C1415 1691.67 1416 1691.33 1417 1691C1417.33 1690.33 1417.67 1689.67 1418 1689H1420C1420.33 1688.33 1420.67 1687.67 1421 1687C1422 1686.67 1423 1686.33 1424 1686C1424.67 1685 1425.33 1684 1426 1683H1428C1428.33 1682.33 1428.67 1681.67 1429 1681H1431C1431.33 1680.33 1431.67 1679.67 1432 1679C1433 1678.67 1434 1678.33 1435 1678C1435.67 1677 1436.33 1676 1437 1675H1439C1439.67 1674 1440.33 1673 1441 1672H1443C1444 1670.67 1445 1669.33 1446 1668C1447 1667.67 1448 1667.33 1449 1667C1449.33 1666.33 1449.67 1665.67 1450 1665H1452C1453 1663.67 1454 1662.33 1455 1661H1457C1458.33 1659.33 1459.67 1657.67 1461 1656H1463C1463.33 1655.33 1463.67 1654.67 1464 1654H1465C1465.33 1653.33 1465.67 1652.67 1466 1652H1468C1468.67 1651 1469.33 1650 1470 1649C1471 1648.33 1472 1647.67 1473 1647V1646H1475C1476.67 1644 1478.33 1642 1480 1640H1482C1483 1638.67 1484 1637.33 1485 1636C1486 1635.33 1487 1634.67 1488 1634V1633H1490C1493.33 1629.33 1496.66 1625.66 1500 1622C1509.98 1614.78 1517.43 1605.57 1526 1597C1537.52 1585.48 1549.33 1574.38 1559 1561C1561 1559.33 1563 1557.67 1565 1556V1554C1565.67 1553.67 1566.33 1553.33 1567 1553C1567.67 1552 1568.33 1551 1569 1550H1570V1548C1571.67 1546.67 1573.33 1545.33 1575 1544V1542C1576.33 1541 1577.67 1540 1579 1539V1537C1580.33 1536 1581.67 1535 1583 1534V1532C1584.33 1531 1585.67 1530 1587 1529V1527C1588 1526.33 1589 1525.67 1590 1525V1523C1591.33 1522 1592.67 1521 1594 1520C1594.33 1519 1594.67 1518 1595 1517C1595.67 1516.67 1596.33 1516.33 1597 1516V1514C1597.67 1513.67 1598.33 1513.33 1599 1513V1511C1599.67 1510.67 1600.33 1510.33 1601 1510C1601.33 1509 1601.67 1508 1602 1507C1603 1506.33 1604 1505.67 1605 1505V1503C1605.67 1502.67 1606.33 1502.33 1607 1502V1500C1608 1499.33 1609 1498.67 1610 1498V1496H1611C1611.33 1495 1611.67 1494 1612 1493C1612.67 1492.67 1613.33 1492.33 1614 1492V1490C1615 1489.33 1616 1488.67 1617 1488V1486C1617.67 1485.67 1618.33 1485.33 1619 1485C1619.33 1484 1619.67 1483 1620 1482H1621V1480C1621.67 1479.67 1622.33 1479.33 1623 1479V1477C1623.67 1476.67 1624.33 1476.33 1625 1476V1474C1625.67 1473.67 1626.33 1473.33 1627 1473C1627.33 1471.67 1627.67 1470.33 1628 1469C1628.67 1468.67 1629.33 1468.33 1630 1468V1466C1630.67 1465.67 1631.33 1465.33 1632 1465C1632.33 1464 1632.67 1463 1633 1462H1634C1634.33 1460.67 1634.67 1459.33 1635 1458H1636C1636.33 1457 1636.67 1456 1637 1455C1637.67 1454.67 1638.33 1454.33 1639 1454C1639.33 1452.67 1639.67 1451.33 1640 1450C1640.67 1449.67 1641.33 1449.33 1642 1449C1642.33 1447.67 1642.67 1446.33 1643 1445C1643.67 1444.67 1644.33 1444.33 1645 1444C1645.67 1442 1646.33 1440 1647 1438C1647.67 1437.67 1648.33 1437.33 1649 1437C1649.67 1435 1650.33 1433 1651 1431C1651.67 1430.67 1652.33 1430.33 1653 1430C1653.33 1428.67 1653.67 1427.33 1654 1426H1655V1424C1655.67 1423.67 1656.33 1423.33 1657 1423V1421H1658V1419H1659V1417H1660V1415H1661C1661.33 1413.67 1661.67 1412.33 1662 1411C1662.67 1410.67 1663.33 1410.33 1664 1410C1666.33 1404.67 1668.66 1399.34 1671 1394H1672V1392H1673V1390H1674V1388H1675V1386H1676C1676.67 1384 1677.33 1382 1678 1380H1679L1682 1371H1683C1683.67 1369 1684.33 1367 1685 1365H1686V1362H1687C1687.33 1360.67 1687.67 1359.33 1688 1358H1689V1355H1690C1690.33 1353.67 1690.67 1352.33 1691 1351H1692V1348H1693C1693.33 1346.67 1693.67 1345.33 1694 1344H1695V1341H1696V1339H1697C1697.33 1337.33 1697.67 1335.67 1698 1334H1699V1331H1700V1329H1701C1708.67 1306.67 1716.34 1284.34 1724 1262V1258H1725V1255H1726V1251C1729.84 1240.35 1732.47 1226.97 1736 1216C1740.33 1192.34 1744.66 1168.67 1749 1145V1137H1750V1129H1751V1120H1752V1110H1753V1098H1754V1084H1755C1756.71 1077.97 1754.33 1067.89 1756 1062C1757.97 1055.04 1753.22 1036.3 1757 1032C1757.33 1041.33 1757.66 1050.66 1758 1060H1759C1759.33 1076 1759.66 1092 1760 1108C1760 1118.38 1761.43 1132.38 1759 1141V1152C1758.67 1160.67 1758.34 1169.34 1758 1178H1757V1191H1756V1201C1753.15 1210.87 1753.82 1224.32 1751 1234V1241C1748.29 1250.2 1747.71 1262.06 1745 1271V1277C1739.67 1300 1734.34 1323 1729 1346H1728C1727 1350.67 1726 1355.34 1725 1360H1724V1363H1723V1366H1722C1721 1370.33 1720 1374.66 1719 1379H1718V1383H1717V1386H1716V1389H1715V1392H1714V1395H1713V1397H1712V1400H1711V1403H1710V1406H1709C1708.67 1408 1708.33 1410 1708 1412H1707V1414H1706C1705.67 1416 1705.33 1418 1705 1420H1704V1422H1703C1702.67 1424 1702.33 1426 1702 1428H1701V1430H1700V1433H1699V1435H1698C1697.67 1436.67 1697.33 1438.33 1697 1440H1696V1443H1695V1445H1694V1448H1693V1450H1692V1453H1691C1690.67 1454.33 1690.33 1455.67 1690 1457H1689V1460H1688V1462H1687C1686.67 1463.33 1686.33 1464.67 1686 1466H1685V1469H1684V1471H1683C1682.67 1472.33 1682.33 1473.67 1682 1475H1681V1478H1680V1480H1679V1482H1678V1484H1677C1676.33 1486 1675.67 1488 1675 1490H1674V1493H1673C1672.33 1495 1671.67 1497 1671 1499H1670V1501H1669V1503H1668V1505H1667V1507H1666V1509H1665V1511H1664V1513H1663V1515H1662V1517C1661.33 1517.33 1660.67 1517.67 1660 1518V1520H1659V1522H1658V1524H1657V1526H1656V1528H1655C1654.67 1529.33 1654.33 1530.67 1654 1532C1653.33 1532.33 1652.67 1532.67 1652 1533C1651.67 1534.33 1651.33 1535.67 1651 1537H1650V1539H1649V1541C1648.33 1541.33 1647.67 1541.67 1647 1542V1544H1646V1546H1645V1548H1644V1550C1643.33 1550.33 1642.67 1550.67 1642 1551C1641.67 1552.33 1641.33 1553.67 1641 1555C1640.33 1555.33 1639.67 1555.67 1639 1556C1638.67 1557.33 1638.33 1558.67 1638 1560C1637.33 1560.33 1636.67 1560.67 1636 1561C1635.67 1562.33 1635.33 1563.67 1635 1565C1634.33 1565.33 1633.67 1565.67 1633 1566C1632.67 1567.33 1632.33 1568.67 1632 1570C1631.33 1570.33 1630.67 1570.67 1630 1571V1573H1629V1575H1628C1627.67 1576 1627.33 1577 1627 1578C1626.33 1578.33 1625.67 1578.67 1625 1579C1624.67 1580.33 1624.33 1581.67 1624 1583C1623.33 1583.33 1622.67 1583.67 1622 1584V1586C1621.33 1586.33 1620.67 1586.67 1620 1587V1589H1619C1618.67 1590 1618.33 1591 1618 1592C1617.33 1592.33 1616.67 1592.67 1616 1593V1595C1615.33 1595.33 1614.67 1595.67 1614 1596V1598C1613.33 1598.33 1612.67 1598.67 1612 1599V1601C1611.33 1601.33 1610.67 1601.67 1610 1602V1604C1609.33 1604.33 1608.67 1604.67 1608 1605V1607C1607.33 1607.33 1606.67 1607.67 1606 1608V1610H1605C1604.67 1611 1604.33 1612 1604 1613C1603.33 1613.33 1602.67 1613.67 1602 1614V1616C1601 1616.67 1600 1617.33 1599 1618V1620C1598.33 1620.33 1597.67 1620.67 1597 1621V1623C1596 1623.67 1595 1624.33 1594 1625V1627C1593.33 1627.33 1592.67 1627.67 1592 1628V1630C1591.33 1630.33 1590.67 1630.67 1590 1631C1589.67 1632 1589.33 1633 1589 1634C1588 1634.67 1587 1635.33 1586 1636V1638C1585 1638.67 1584 1639.33 1583 1640V1642C1582 1642.67 1581 1643.33 1580 1644V1646C1579 1646.67 1578 1647.33 1577 1648V1650C1575.67 1651 1574.33 1652 1573 1653V1655C1572 1655.67 1571 1656.33 1570 1657V1659C1568.67 1660 1567.33 1661 1566 1662V1664C1564.33 1665.33 1562.67 1666.67 1561 1668V1670C1559.33 1671.33 1557.67 1672.67 1556 1674V1676C1554.33 1677.33 1552.67 1678.67 1551 1680V1682C1550 1682.67 1549 1683.33 1548 1684C1547.33 1685 1546.67 1686 1546 1687H1545V1689C1542.67 1691 1540.34 1693 1538 1695V1697C1535 1699.67 1532 1702.34 1529 1705V1707C1523.67 1712 1518.34 1717 1513 1722V1724C1511 1725.67 1509 1727.33 1507 1729C1502 1734.33 1497 1739.66 1492 1745H1490C1485 1750.33 1480 1755.66 1475 1761H1473C1470.33 1764 1467.66 1767 1465 1770H1463C1461 1772.33 1459 1774.66 1457 1777H1455C1453.33 1779 1451.67 1781 1450 1783H1448C1446.67 1784.67 1445.33 1786.33 1444 1788H1442C1441.67 1788.67 1441.33 1789.33 1441 1790C1440 1790.67 1439 1791.33 1438 1792V1793H1436C1434.67 1794.67 1433.33 1796.33 1432 1798H1430C1429 1799.33 1428 1800.67 1427 1802H1425C1424.67 1802.67 1424.33 1803.33 1424 1804C1423 1804.33 1422 1804.67 1421 1805C1420 1806.33 1419 1807.67 1418 1809H1416C1415.33 1810 1414.67 1811 1414 1812H1412C1411.33 1813 1410.67 1814 1410 1815H1408C1407.33 1816 1406.67 1817 1406 1818H1404C1403.33 1819 1402.67 1820 1402 1821C1401 1821.33 1400 1821.67 1399 1822C1398.67 1822.67 1398.33 1823.33 1398 1824H1396C1395.67 1824.67 1395.33 1825.33 1395 1826H1393C1392.33 1827 1391.67 1828 1391 1829H1389C1388.67 1829.67 1388.33 1830.33 1388 1831H1386C1385.33 1832 1384.67 1833 1384 1834H1382C1381.67 1834.67 1381.33 1835.33 1381 1836C1380 1836.33 1379 1836.67 1378 1837V1838H1376C1375.67 1838.67 1375.33 1839.33 1375 1840H1373C1372.67 1840.67 1372.33 1841.33 1372 1842H1370C1369.67 1842.67 1369.33 1843.33 1369 1844H1367C1366.67 1844.67 1366.33 1845.33 1366 1846H1364C1363.67 1846.67 1363.33 1847.33 1363 1848H1361C1360.67 1848.67 1360.33 1849.33 1360 1850H1358C1357.67 1850.67 1357.33 1851.33 1357 1852H1355C1354.67 1852.67 1354.33 1853.33 1354 1854H1352C1351.67 1854.67 1351.33 1855.33 1351 1856C1349.67 1856.33 1348.33 1856.67 1347 1857C1346.67 1857.67 1346.33 1858.33 1346 1859H1344C1343.67 1859.67 1343.33 1860.33 1343 1861C1341.67 1861.33 1340.33 1861.67 1339 1862C1338.67 1862.67 1338.33 1863.33 1338 1864C1336.67 1864.33 1335.33 1864.67 1334 1865C1333.67 1865.67 1333.33 1866.33 1333 1867C1331.67 1867.33 1330.33 1867.67 1329 1868C1328.67 1868.67 1328.33 1869.33 1328 1870C1326.67 1870.33 1325.33 1870.67 1324 1871C1323.67 1871.67 1323.33 1872.33 1323 1873C1321.67 1873.33 1320.33 1873.67 1319 1874C1318.67 1874.67 1318.33 1875.33 1318 1876H1316V1877H1314V1878H1312V1879H1310C1309.67 1879.67 1309.33 1880.33 1309 1881H1307V1882H1305V1883H1303V1884H1301C1300.67 1884.67 1300.33 1885.33 1300 1886H1298V1887H1296V1888H1294V1889H1292V1890H1290V1891C1288.67 1891.33 1287.33 1891.67 1286 1892C1285.67 1892.67 1285.33 1893.33 1285 1894H1283V1895H1281V1896H1279V1897H1277V1898H1275V1899H1273V1900H1271V1901H1269V1902H1267V1903C1265 1903.67 1263 1904.33 1261 1905V1906H1258V1907H1256V1908H1254V1909H1252V1910C1250 1910.67 1248 1911.33 1246 1912V1913H1243V1914H1241V1915C1239.67 1915.33 1238.33 1915.67 1237 1916V1917H1234V1918H1232V1919H1230V1920H1228V1921H1225V1922C1223.67 1922.33 1222.33 1922.67 1221 1923V1924H1218V1925H1216V1926H1213V1927H1211V1928C1209.33 1928.33 1207.67 1928.67 1206 1929V1930H1203V1931H1201V1932H1198V1933H1196V1934C1194 1934.33 1192 1934.67 1190 1935V1936H1188V1937C1186 1937.33 1184 1937.67 1182 1938V1939H1180V1940H1177V1941H1174V1942H1171V1943H1168V1944H1165V1945H1163V1946H1160V1947H1157V1948H1154V1949H1151V1950H1147V1951H1144V1952H1141V1953H1138V1954C1134.67 1954.67 1131.33 1955.33 1128 1956V1957H1124V1958H1121V1959H1117C1103.8 1963.76 1087.77 1966.57 1074 1971C1071 1971.33 1068 1971.67 1065 1972V1973C1061.67 1973.33 1058.33 1973.67 1055 1974C1045.04 1977.12 1032.2 1977.96 1022 1981C1017.67 1981.33 1013.33 1981.66 1009 1982C999.832 1984.67 987.392 1984.32 978 1987H969V1988H959V1989H946V1990H931C925.105 1991.67 915.038 1989.3 909 1991C900.069 1993.52 885.7 1991.94 875 1992C874.156 1990.87 875.127 1991.85 874 1991C872.334 1979.67 870.667 1968.34 869 1957V1947H868V1936H867V1922H866V1894C864.975 1890.36 863.594 1876.07 865 1871H866C866.334 1857.33 866.667 1843.67 867 1830Z" fill="#312E81"></path>
<path fill-rule="evenodd" clip-rule="evenodd" d="M1287 562C1287.84 558.661 1293.62 553.518 1296 551C1296.67 550.667 1297.33 550.333 1298 550V548L1304 543V541C1305.67 539.667 1307.33 538.333 1309 537V535C1310.33 534 1311.67 533 1313 532V530C1314.33 529 1315.67 528 1317 527V525C1318.33 524 1319.67 523 1321 522C1321.33 521 1321.67 520 1322 519C1322.67 518.667 1323.33 518.333 1324 518V516L1327 514V512L1330 510V508L1333 506V504C1333.67 503.667 1334.33 503.333 1335 503V501L1338 499V497C1338.67 496.667 1339.33 496.333 1340 496C1340.33 495 1340.67 494 1341 493H1342V491C1342.67 490.667 1343.33 490.333 1344 490V488C1344.67 487.667 1345.33 487.333 1346 487V485C1346.67 484.667 1347.33 484.333 1348 484V482C1348.67 481.667 1349.33 481.333 1350 481V479C1350.67 478.667 1351.33 478.333 1352 478V476C1352.67 475.667 1353.33 475.333 1354 475V473C1354.67 472.667 1355.33 472.333 1356 472C1356.33 470.667 1356.67 469.333 1357 468H1358C1358.33 467 1358.67 466 1359 465C1359.67 464.667 1360.33 464.333 1361 464V462H1362V460C1362.67 459.667 1363.33 459.333 1364 459C1364.33 457.667 1364.67 456.333 1365 455C1365.67 454.667 1366.33 454.333 1367 454C1367.67 452 1368.33 450 1369 448C1369.67 447.667 1370.33 447.333 1371 447C1371.67 445 1372.33 443 1373 441C1373.67 440.667 1374.33 440.333 1375 440V438H1376V436H1377V434H1378V432H1379V430C1379.67 429.667 1380.33 429.333 1381 429V427H1382V425H1383V423H1384V421H1385V419H1386V417H1387V415H1388V413H1389V411H1390C1390.67 409 1391.33 407 1392 405H1393V402H1394V400H1395C1395.67 398 1396.33 396 1397 394H1398V391H1399C1399.33 389.667 1399.67 388.333 1400 387H1401V384H1402C1402.33 382.667 1402.67 381.333 1403 380H1404V377H1405V375H1406V372H1407V370H1408V367H1409V365H1410C1410.67 362 1411.33 359 1412 356H1413V353H1414V351H1415C1415.33 349 1415.67 347 1416 345H1417V342H1418V339H1419C1419.67 335.667 1420.34 332.333 1421 329H1422C1422.33 326.334 1422.67 323.666 1423 321H1424V318H1425V314H1426V310H1427V306H1428V302H1429C1429.33 299.334 1429.67 296.666 1430 294H1431C1431.67 289.333 1432.34 284.667 1433 280H1434V274H1435V269H1436V264H1437C1437.33 260 1437.66 256 1438 252C1441.12 241.552 1440.93 227.691 1444 217V208H1445V199H1446V188H1447V177H1448V164H1449C1449.33 151 1449.66 138 1450 125C1452.82 114.963 1451 98.861 1451 87V29H1450C1449.67 19.6667 1449.34 10.3333 1449 1H1450V3H1451V6H1452C1452.33 7.333 1452.67 8.667 1453 10H1454V13H1455V15H1456C1456.33 16.666 1456.67 18.334 1457 20H1458V23H1459V25H1460V28H1461V30H1462V33H1463V35H1464V38H1465V40H1466C1466.33 42 1466.67 44 1467 46H1468V48H1469C1469.67 51 1470.33 54 1471 57H1472V59H1473V62H1474V65H1475V68H1476V71H1477V74H1478V76H1479V79H1480V82H1481V85H1482V88H1483V91H1484V95H1485V98H1486V101H1487V104H1488V107H1489V111H1490V114H1491V117H1492C1492.33 119.333 1492.67 121.667 1493 124H1494C1494.33 126.333 1494.67 128.667 1495 131H1496C1496.33 133.333 1496.67 135.667 1497 138H1498C1498.33 140.666 1498.67 143.334 1499 146H1500V150H1501V154H1502V158H1503V162H1504L1507 179H1508C1508.33 182.333 1508.67 185.667 1509 189C1512.3 199.582 1512.83 213.058 1516 224V232H1517V240H1518V251H1519V263H1520V280C1522.98 290.707 1521 312.923 1521 326C1521 333.433 1521.64 343.2 1520 349V368H1519V381H1518V393H1517V403H1516V411H1515V418H1514C1513.67 421.333 1513.33 424.667 1513 428H1512L1509 446H1508C1507.67 448.666 1507.33 451.334 1507 454H1506C1505.67 456.666 1505.33 459.334 1505 462H1504V465H1503C1502.67 467.333 1502.33 469.667 1502 472H1501V476H1500V479H1499V483H1498V486H1497V489H1496V492H1495V495H1494V498H1493V501H1492C1491.67 503 1491.33 505 1491 507H1490V509H1489C1488.67 511 1488.33 513 1488 515H1487V517H1486V520H1485C1484.67 521.333 1484.33 522.667 1484 524H1483V527H1482C1481.67 528.333 1481.33 529.667 1481 531H1480V534H1479C1478.33 536 1477.67 538 1477 540H1476C1475.67 541.667 1475.33 543.333 1475 545H1474V547H1473C1472.67 548.333 1472.33 549.667 1472 551H1471V553H1470V555H1469V557H1468V559H1467V561H1466C1465.67 562.333 1465.33 563.667 1465 565H1464C1463.67 566.333 1463.33 567.667 1463 569H1462V571H1461V573H1460V575H1459V577H1458C1457.67 578.333 1457.33 579.667 1457 581C1456.33 581.333 1455.67 581.667 1455 582V584H1454V586H1453V588H1452V590H1451V592H1450V594C1449.33 594.333 1448.67 594.667 1448 595V597H1447V599H1446V601H1445V603C1444.33 603.333 1443.67 603.667 1443 604C1442.33 606 1441.67 608 1441 610C1440.33 610.333 1439.67 610.667 1439 611V613H1438V615C1437.33 615.333 1436.67 615.667 1436 616C1435.33 618 1434.67 620 1434 622C1433.33 622.333 1432.67 622.667 1432 623C1431.67 624.333 1431.33 625.667 1431 627C1430.33 627.333 1429.67 627.667 1429 628C1428.67 629.333 1428.33 630.667 1428 632C1427.33 632.333 1426.67 632.667 1426 633C1425.67 634.333 1425.33 635.667 1425 637H1424C1423.67 638 1423.33 639 1423 640C1422.33 640.333 1421.67 640.667 1421 641C1420.67 642.333 1420.33 643.667 1420 645C1419.33 645.333 1418.67 645.667 1418 646V648C1417.33 648.333 1416.67 648.667 1416 649V651C1415.33 651.333 1414.67 651.667 1414 652C1413.67 653.333 1413.33 654.667 1413 656C1412.33 656.333 1411.67 656.667 1411 657V659H1410C1409.67 660 1409.33 661 1409 662C1408.33 662.333 1407.67 662.667 1407 663V665C1406.33 665.333 1405.67 665.667 1405 666C1404.67 667 1404.33 668 1404 669L1401 671V673L1398 675V677C1396.67 678 1395.33 679 1394 680C1393.67 681 1393.33 682 1393 683C1392.33 683.333 1391.67 683.667 1391 684V686C1389.67 687 1388.33 688 1387 689V691C1385.67 692 1384.33 693 1383 694V696C1381.33 697.333 1379.67 698.667 1378 700V702C1377.33 702.333 1376.67 702.667 1376 703V704C1375.33 704.333 1374.67 704.667 1374 705V707C1372.33 708.333 1370.67 709.667 1369 711V713L1363 718V720C1360.67 722 1358.34 724 1356 726V728C1353.33 730.333 1350.66 732.667 1348 735V737L1336 748V750C1331.67 754 1327.34 758 1323 762C1314.43 770.572 1306.98 779.785 1297 787C1292.33 792 1287.66 797 1283 802H1281C1277.33 806 1273.66 810 1270 814H1268C1265.33 817 1262.66 820 1260 823H1258L1252 830H1250L1244 837H1242L1236 844H1234C1232.33 846 1230.67 848 1229 850H1227C1225.33 852 1223.67 854 1222 856H1220C1218.67 857.667 1217.33 859.333 1216 861H1214C1212.33 863 1210.67 865 1209 867H1207C1206.67 867.667 1206.33 868.333 1206 869H1205C1204.33 870 1203.67 871 1203 872H1201C1200.67 872.667 1200.33 873.333 1200 874L1197 876V877H1195C1193.67 878.667 1192.33 880.333 1191 882H1189C1188.67 882.667 1188.33 883.333 1188 884H1187C1186.67 884.667 1186.33 885.333 1186 886H1184C1182.67 887.667 1181.33 889.333 1180 891H1178L1175 895H1173L1170 899H1168L1165 903H1163L1160 907H1158L1155 911H1153C1152.67 911.667 1152.33 912.333 1152 913H1151C1150.67 913.667 1150.33 914.333 1150 915H1148C1147.67 915.667 1147.33 916.333 1147 917L1144 918L1141 922H1139C1138.33 923 1137.67 924 1137 925H1135C1134.67 925.667 1134.33 926.333 1134 927L1131 928L1128 932H1126C1125.33 933 1124.67 934 1124 935H1122C1121.33 936 1120.67 937 1120 938H1118C1117.33 939 1116.67 940 1116 941L1113 942C1112.67 942.667 1112.33 943.333 1112 944H1110C1109.67 944.667 1109.33 945.333 1109 946H1107C1106.67 946.667 1106.33 947.333 1106 948L1103 949C1102.33 950 1101.67 951 1101 952H1099C1098.67 952.667 1098.33 953.333 1098 954H1096C1095.33 955 1094.67 956 1094 957H1092C1091.67 957.667 1091.33 958.333 1091 959H1089C1088.33 960 1087.67 961 1087 962H1085V963L1082 964C1081.67 964.667 1081.33 965.333 1081 966H1079C1078.33 967 1077.67 968 1077 969H1075C1074.67 969.667 1074.33 970.333 1074 971H1072V972L1069 973C1068.67 973.667 1068.33 974.333 1068 975H1066C1065.33 976 1064.67 977 1064 978H1062C1061.67 978.667 1061.33 979.333 1061 980L1058 981V982H1056C1055.67 982.667 1055.33 983.333 1055 984H1053C1052.67 984.667 1052.33 985.333 1052 986H1050C1049.67 986.667 1049.33 987.333 1049 988H1047C1046.67 988.667 1046.33 989.333 1046 990H1044C1043.67 990.667 1043.33 991.333 1043 992H1041C1040.67 992.667 1040.33 993.333 1040 994H1038C1037.67 994.667 1037.33 995.333 1037 996H1035C1034.67 996.667 1034.33 997.333 1034 998H1032C1031.67 998.667 1031.33 999.333 1031 1000H1029C1028.67 1000.67 1028.33 1001.33 1028 1002C1026.67 1002.33 1025.33 1002.67 1024 1003C1023.67 1003.67 1023.33 1004.33 1023 1005H1021C1020.67 1005.67 1020.33 1006.33 1020 1007H1018C1017.67 1007.67 1017.33 1008.33 1017 1009H1015C1014.67 1009.67 1014.33 1010.33 1014 1011C1012.67 1011.33 1011.33 1011.67 1010 1012V1013C1009 1013.33 1008 1013.67 1007 1014C1006.67 1014.67 1006.33 1015.33 1006 1016H1004V1017H1002C1001.67 1017.67 1001.33 1018.33 1001 1019C999.667 1019.33 998.333 1019.67 997 1020V1021C996 1021.33 995 1021.67 994 1022C993.667 1022.67 993.333 1023.33 993 1024H991V1025H989C988.667 1025.67 988.333 1026.33 988 1027C986.667 1027.33 985.333 1027.67 984 1028V1029C983 1029.33 982 1029.67 981 1030C980.667 1030.67 980.333 1031.33 980 1032H978V1033H976C975.667 1033.67 975.333 1034.33 975 1035C973.667 1035.33 972.333 1035.67 971 1036V1037C970 1037.33 969 1037.67 968 1038C967.667 1038.67 967.333 1039.33 967 1040C965.667 1040.33 964.333 1040.67 963 1041C962.667 1041.67 962.333 1042.33 962 1043C960.667 1043.33 959.333 1043.67 958 1044C957.667 1044.67 957.333 1045.33 957 1046C955.667 1046.33 954.333 1046.67 953 1047V1048C952 1048.33 951 1048.67 950 1049C949.667 1049.67 949.333 1050.33 949 1051H947V1052H945C944.667 1052.67 944.333 1053.33 944 1054C942.667 1054.33 941.333 1054.67 940 1055C939.667 1055.67 939.333 1056.33 939 1057H937C936.667 1057.67 936.333 1058.33 936 1059C934.667 1059.33 933.333 1059.67 932 1060C931.667 1060.67 931.333 1061.33 931 1062C929.667 1062.33 928.333 1062.67 927 1063V1064C926 1064.33 925 1064.67 924 1065C923.667 1065.67 923.333 1066.33 923 1067H921V1068H919C918.667 1068.67 918.333 1069.33 918 1070C916.667 1070.33 915.333 1070.67 914 1071C913.667 1071.67 913.333 1072.33 913 1073H911C910.667 1073.67 910.333 1074.33 910 1075H908C907.667 1075.67 907.333 1076.33 907 1077H905C904.667 1077.67 904.333 1078.33 904 1079C902.667 1079.33 901.333 1079.67 900 1080C899.667 1080.67 899.333 1081.33 899 1082H897C896.667 1082.67 896.333 1083.33 896 1084H894C893.667 1084.67 893.333 1085.33 893 1086H891C890.667 1086.67 890.333 1087.33 890 1088H888V1089C887 1089.33 886 1089.67 885 1090C884.667 1090.67 884.333 1091.33 884 1092H882C881.667 1092.67 881.333 1093.33 881 1094H879C878.667 1094.67 878.333 1095.33 878 1096H876V1097C875 1097.33 874 1097.67 873 1098C872.667 1098.67 872.333 1099.33 872 1100H870L868 1103H866C865.667 1103.67 865.333 1104.33 865 1105C864 1105.33 863 1105.67 862 1106V1107H860V1108C859 1108.33 858 1108.67 857 1109C856.667 1109.67 856.333 1110.33 856 1111H854L852 1114H850V1115C849 1115.33 848 1115.67 847 1116C846.667 1116.67 846.333 1117.33 846 1118H844L842 1121H840C839.667 1121.67 839.333 1122.33 839 1123H837L835 1126H833C832.667 1126.67 832.333 1127.33 832 1128H830L828 1131H826L824 1134H822L820 1137H818C817.667 1137.67 817.333 1138.33 817 1139H815L813 1142H811L809 1145H807L805 1148H803L801 1151H799L797 1154H795L793 1157H791L789 1160H787C786.667 1160.67 786.333 1161.33 786 1162C785 1162.33 784 1162.67 783 1163L781 1166H779C778 1167.33 777 1168.67 776 1170C775 1170.33 774 1170.67 773 1171C772.667 1171.67 772.333 1172.33 772 1173H770C769.667 1173.67 769.333 1174.33 769 1175H768C767.667 1175.67 767.333 1176.33 767 1177H765C763.667 1178.67 762.333 1180.33 761 1182H759L754 1188H752L747 1194H745C742.667 1196.67 740.333 1199.34 738 1202H736C735.667 1202.67 735.333 1203.33 735 1204H734C731 1207.33 728 1210.66 725 1214H723C719.667 1217.67 716.333 1221.34 713 1225C705.707 1232.3 698.159 1238.48 692 1247C688.333 1250.33 684.667 1253.66 681 1257V1259C678.333 1261.33 675.667 1263.66 673 1266V1268C671.333 1269.33 669.667 1270.67 668 1272V1274C666.333 1275.33 664.667 1276.67 663 1278V1280L659 1283V1285L655 1288V1290L651 1293V1295C650 1295.67 649 1296.33 648 1297V1299C647 1299.67 646 1300.33 645 1301V1303C644.333 1303.33 643.667 1303.67 643 1304V1306C642 1306.67 641 1307.33 640 1308V1310C639.333 1310.33 638.667 1310.67 638 1311C637.667 1312 637.333 1313 637 1314H636V1316C635.333 1316.33 634.667 1316.67 634 1317V1319C633.333 1319.33 632.667 1319.67 632 1320V1322C631.333 1322.33 630.667 1322.67 630 1323V1325C629.333 1325.33 628.667 1325.67 628 1326V1328C627.333 1328.33 626.667 1328.67 626 1329C625.667 1330.33 625.333 1331.67 625 1333C624.333 1333.33 623.667 1333.67 623 1334V1336C622.333 1336.33 621.667 1336.67 621 1337V1339H620V1341H619V1343C618.333 1343.33 617.667 1343.67 617 1344V1346H616V1348H615V1350H614V1352C613.333 1352.33 612.667 1352.67 612 1353V1355H611V1357H610V1359H609V1361H608V1363H607V1365H606V1367H605V1369H604C603.333 1371 602.667 1373 602 1375H601V1378H600V1380H599V1382H598C597.667 1383.33 597.333 1384.67 597 1386H596V1389H595C594.667 1390.33 594.333 1391.67 594 1393H593L587 1411H586V1413H585C584.333 1416 583.667 1419 583 1422H582V1424H581C580.667 1426 580.333 1428 580 1430H579V1433H578V1436H577V1439H576V1442H575V1445H574V1448H573V1452H572V1455H571V1458H570L569 1465H568C567.333 1468.67 566.667 1472.34 566 1476H565V1480H564C563.333 1484 562.667 1488 562 1492H561V1497H560C559.667 1500 559.333 1503 559 1506H558V1510H557V1515H556V1520H555V1525H554V1530H553V1536H552V1541H551V1548H550V1554H549V1561C546.789 1568.57 545.325 1581.08 545 1590H544V1589C541.012 1586.35 540.286 1582.44 538 1579C537.333 1578.67 536.667 1578.33 536 1578C535.667 1577 535.333 1576 535 1575H534C533.667 1573.67 533.333 1572.33 533 1571C532.333 1570.67 531.667 1570.33 531 1570C530.667 1568.67 530.333 1567.33 530 1566C529.333 1565.67 528.667 1565.33 528 1565V1563C527.333 1562.67 526.667 1562.33 526 1562C525.667 1560.67 525.333 1559.33 525 1558C524.333 1557.67 523.667 1557.33 523 1557C522.333 1555 521.667 1553 521 1551C520.333 1550.67 519.667 1550.33 519 1550C518.667 1548.67 518.333 1547.33 518 1546C517.333 1545.67 516.667 1545.33 516 1545C515.333 1543 514.667 1541 514 1539C513.333 1538.67 512.667 1538.33 512 1538L510 1532C509.333 1531.67 508.667 1531.33 508 1531V1529H507V1527H506V1525H505V1523C504.333 1522.67 503.667 1522.33 503 1522C500.667 1516.67 498.333 1511.34 496 1506C495.333 1505.67 494.667 1505.33 494 1505V1503H493V1501H492V1499H491V1497H490V1495H489V1493H488L486 1487H485V1484H484V1482H483V1480H482L480 1474H479V1471H478V1469H477C476.667 1467.67 476.333 1466.33 476 1465H475V1462H474C473.667 1460.67 473.333 1459.33 473 1458H472V1455H471V1453H470V1450H469V1448H468C460 1425 452 1402 444 1379V1375H443V1372H442C441.667 1369.67 441.333 1367.33 441 1365H440V1361H439V1356H438L437 1346H436C435.333 1338.67 434.667 1331.34 434 1324C431.657 1315.64 432.906 1305.52 432 1295C431.792 1292.58 430.009 1289.53 431 1286H432V1276C432.007 1269.38 432.539 1263.09 434 1258L436 1238H437V1233H438V1228H439V1223H440V1219H441V1214H442C442.667 1210 443.333 1206 444 1202H445C445.333 1199.67 445.667 1197.33 446 1195H447C447.333 1192.67 447.667 1190.33 448 1188H449V1185H450V1182H451C451.333 1179.67 451.667 1177.33 452 1175H453V1173H454V1170H455V1168H456C456.333 1166.67 456.667 1165.33 457 1164H458V1162H459V1160H460V1158H461V1156H462V1154H463V1152H464V1150H465V1148H466V1146H467V1144C467.667 1143.67 468.333 1143.33 469 1143L471 1137C471.667 1136.67 472.333 1136.33 473 1136V1134H474V1132C474.667 1131.67 475.333 1131.33 476 1131V1129C476.667 1128.67 477.333 1128.33 478 1128V1126H479L480 1123C480.667 1122.67 481.333 1122.33 482 1122V1120H483L484 1117C484.667 1116.67 485.333 1116.33 486 1116V1114C486.667 1113.67 487.333 1113.33 488 1113L489 1110C490 1109.33 491 1108.67 492 1108V1106L496 1103V1101L500 1098V1096C502 1094.33 504 1092.67 506 1091V1089C508.667 1086.67 511.333 1084.34 514 1082V1080C519 1075.33 524 1070.66 529 1066V1064C530.667 1062.67 532.333 1061.33 534 1060C537 1056.67 540 1053.34 543 1050H545C550 1044.67 555 1039.34 560 1034H562L564 1031H566L568 1028H570L572 1025H574L576 1022H578L580 1019C581 1018.67 582 1018.33 583 1018C583.333 1017.33 583.667 1016.67 584 1016H586C586.333 1015.33 586.667 1014.67 587 1014H589C589.333 1013.33 589.667 1012.67 590 1012C591 1011.67 592 1011.33 593 1011L595 1008H597C597.333 1007.33 597.667 1006.67 598 1006H600C600.333 1005.33 600.667 1004.67 601 1004C602 1003.67 603 1003.33 604 1003L606 1000H608V999L611 998C611.333 997.333 611.667 996.667 612 996H614L616 993H618V992L621 991C621.333 990.333 621.667 989.667 622 989H624L626 986H628C628.333 985.333 628.667 984.667 629 984L632 983V982H634C634.333 981.333 634.667 980.667 635 980H637C637.333 979.333 637.667 978.667 638 978H640C640.333 977.333 640.667 976.667 641 976H643C643.333 975.333 643.667 974.667 644 974H646C646.333 973.333 646.667 972.667 647 972H649C649.333 971.333 649.667 970.667 650 970H652C652.333 969.333 652.667 968.667 653 968H655C655.333 967.333 655.667 966.667 656 966H658C658.333 965.333 658.667 964.667 659 964H661C661.333 963.333 661.667 962.667 662 962H664C664.333 961.333 664.667 960.667 665 960H667C667.333 959.333 667.667 958.667 668 958H670V957H672C672.333 956.333 672.667 955.667 673 955H675C675.333 954.333 675.667 953.667 676 953L680 952V951L683 950C683.333 949.333 683.667 948.667 684 948H686V947H688C688.333 946.333 688.667 945.667 689 945L693 944C693.333 943.333 693.667 942.667 694 942L698 941C698.333 940.333 698.667 939.667 699 939L703 938C703.333 937.333 703.667 936.667 704 936L710 934C710.333 933.333 710.667 932.667 711 932H713V931H715C715.333 930.333 715.667 929.667 716 929H718V928H720V927H722C722.333 926.333 722.667 925.667 723 925L729 923C729.333 922.333 729.667 921.667 730 921H732V920H734V919H736V918H738C738.333 917.333 738.667 916.667 739 916L745 914C745.333 913.333 745.667 912.667 746 912L750 911V910L756 908C756.333 907.333 756.667 906.667 757 906H759V905H761V904H763V903H765V902H767V901H769C792.932 885.961 820.109 874.07 844 859L848 858V857H850V856H852V855H854V854H856C856.333 853.333 856.667 852.667 857 852H859V851H861V850H863V849H865V848H867V847H869C888.779 834.569 911.249 824.456 931 812H933V811H935V810H937V809H939V808H941V807H943C943.333 806.333 943.667 805.667 944 805H946V804H948V803H950V802H952V801L956 800C956.333 799.333 956.667 798.667 957 798H959V797H961V796H963V795H965C965.333 794.333 965.667 793.667 966 793H968V792H970V791H972C972.333 790.333 972.667 789.667 973 789L979 787C979.333 786.333 979.667 785.667 980 785H982V784H984C984.333 783.333 984.667 782.667 985 782L991 780C991.333 779.333 991.667 778.667 992 778H994V777H996C996.333 776.333 996.667 775.667 997 775L1001 774C1001.33 773.333 1001.67 772.667 1002 772L1006 771C1006.33 770.333 1006.67 769.667 1007 769L1011 768C1011.33 767.333 1011.67 766.667 1012 766L1016 765C1016.33 764.333 1016.67 763.667 1017 763L1021 762C1021.33 761.333 1021.67 760.667 1022 760L1026 759C1026.33 758.333 1026.67 757.667 1027 757L1031 756C1031.33 755.333 1031.67 754.667 1032 754L1036 753V752L1039 751C1039.33 750.333 1039.67 749.667 1040 749L1044 748V747L1047 746C1047.33 745.333 1047.67 744.667 1048 744L1052 743C1052.33 742.333 1052.67 741.667 1053 741L1057 740C1057.33 739.333 1057.67 738.667 1058 738H1060C1060.33 737.333 1060.67 736.667 1061 736H1063C1063.33 735.333 1063.67 734.667 1064 734L1068 733C1068.33 732.333 1068.67 731.667 1069 731H1071C1071.33 730.333 1071.67 729.667 1072 729H1074C1074.33 728.333 1074.67 727.667 1075 727L1079 726C1079.33 725.333 1079.67 724.667 1080 724H1082V723L1085 722C1085.33 721.333 1085.67 720.667 1086 720H1088C1088.33 719.333 1088.67 718.667 1089 718L1092 717V716L1096 715C1096.33 714.333 1096.67 713.667 1097 713H1099C1099.33 712.333 1099.67 711.667 1100 711H1102C1102.33 710.333 1102.67 709.667 1103 709H1105V708L1108 707C1108.33 706.333 1108.67 705.667 1109 705H1111C1111.33 704.333 1111.67 703.667 1112 703H1114C1114.33 702.333 1114.67 701.667 1115 701H1117V700L1120 699C1120.33 698.333 1120.67 697.667 1121 697H1123C1123.67 696 1124.33 695 1125 694H1127C1127.33 693.333 1127.67 692.667 1128 692H1130V691L1133 690C1133.33 689.333 1133.67 688.667 1134 688H1136C1136.33 687.333 1136.67 686.667 1137 686H1139C1139.67 685 1140.33 684 1141 683H1143C1143.33 682.333 1143.67 681.667 1144 681H1146C1146.67 680 1147.33 679 1148 678H1150C1150.33 677.333 1150.67 676.667 1151 676H1153C1153.67 675 1154.33 674 1155 673H1157C1157.33 672.333 1157.67 671.667 1158 671H1160C1160.33 670.333 1160.67 669.667 1161 669L1164 668C1164.67 667 1165.33 666 1166 665H1168C1168.33 664.333 1168.67 663.667 1169 663H1171L1174 659H1176C1176.67 658 1177.33 657 1178 656H1180C1180.67 655 1181.33 654 1182 653H1184L1187 649H1189L1192 645L1195 644C1195.33 643.333 1195.67 642.667 1196 642H1198C1199.33 640.333 1200.67 638.667 1202 637H1204C1204.33 636.333 1204.67 635.667 1205 635H1206C1206.33 634.333 1206.67 633.667 1207 633H1209C1210.67 631 1212.33 629 1214 627H1216C1217.33 625.333 1218.67 623.667 1220 622H1222C1223.67 620 1225.33 618 1227 616H1229L1235 609H1237C1239.67 606 1242.34 603 1245 600H1247V599L1250 597C1252.33 594.333 1254.66 591.667 1257 589H1259C1259.33 588.333 1259.67 587.667 1260 587L1266 582C1272.33 575.333 1278.66 568.667 1285 562H1287ZM991 327C1072.37 325.909 1122.97 365.8 1154 415V417H1155V419H1156V421H1157V423H1158V425H1159V427H1160C1160.67 429 1161.33 431 1162 433H1163V436H1164V438H1165V441H1166V443H1167V446H1168V449H1169V452H1170C1170.33 454.333 1170.67 456.667 1171 459H1172V463C1173.48 467.543 1174.66 474.272 1176 479C1176.33 488.667 1176.66 498.333 1177 508C1177 533.795 1170.85 554.171 1163 572V575H1162C1161.33 577 1160.67 579 1160 581H1159V583H1158V585H1157V587H1156V589H1155V591H1154V593H1153C1152.67 594 1152.33 595 1152 596C1151.33 596.333 1150.67 596.667 1150 597C1149.67 598.333 1149.33 599.667 1149 601C1148.33 601.333 1147.67 601.667 1147 602V604L1144 606V608C1143.33 608.333 1142.67 608.667 1142 609V611C1141.33 611.333 1140.67 611.667 1140 612V613C1139.33 613.333 1138.67 613.667 1138 614V616C1136.33 617.333 1134.67 618.667 1133 620V622C1129.67 625 1126.34 628 1123 631C1121.67 632.667 1120.33 634.333 1119 636H1117C1115.33 638 1113.67 640 1112 642H1110C1109.33 643 1108.67 644 1108 645H1106C1105.33 646 1104.67 647 1104 648H1102C1101.67 648.667 1101.33 649.333 1101 650L1098 651V652H1096C1095.67 652.667 1095.33 653.333 1095 654H1093C1092.67 654.667 1092.33 655.333 1092 656L1086 658C1085.67 658.667 1085.33 659.333 1085 660L1081 661V662L1075 664V665H1072V666L1068 667V668C1066.33 668.333 1064.67 668.667 1063 669V670L1057 671V672H1054V673H1051V674H1047V675H1043V676H1039V677L1029 678V679L1010 680V681C1004.83 682.439 994.638 681.021 991 680L972 679V678H967V677H962V676H958V675H954V674H950V673H947V672H944V671H941V670H938V669H936V668H933V667L929 666V665H926V664L920 662V661L916 660C915.667 659.333 915.333 658.667 915 658L909 656V655L906 654C905.667 653.333 905.333 652.667 905 652H903V651L900 650C899.667 649.333 899.333 648.667 899 648H897L895 645H893C892.667 644.333 892.333 643.667 892 643L889 642L885 637H883L874 627L868 622V620L862 615V613L859 611C858.667 610 858.333 609 858 608L856 607V605L854 604V602L852 601C851.667 600 851.333 599 851 598H850C849.667 596.667 849.333 595.333 849 594L847 593V591H846V589H845V587H844V585H843V583H842V581H841V579H840C839.333 577 838.667 575 838 573H837V570H836V568H835C834.667 566 834.333 564 834 562H833V559H832V556H831V553H830C829.667 550.333 829.333 547.667 829 545C824.011 530.019 820.839 497.015 826 479V472L835 440H836V438H837V435H838C838.667 433 839.333 431 840 429H841V427H842V425H843V423H844V421H845V419H846V417H847V415L849 414C849.333 412.667 849.667 411.333 850 410L852 409V407H853C853.333 406 853.667 405 854 404L856 403V401L858 400C858.333 399 858.667 398 859 397L863 394V392L868 388V386L874 381L883 371H885L889 366H891L893 363H895L897 360H899C899.333 359.333 899.667 358.667 900 358L903 357V356H905C905.333 355.333 905.667 354.667 906 354H908C908.333 353.333 908.667 352.667 909 352L915 350C915.333 349.333 915.667 348.667 916 348L920 347V346L926 344V343H929V342L933 341V340H936V339H938V338L944 337V336H947V335H950V334H954V333H958V332H962V331L972 330V329C976.56 327.654 988.144 329.5 991 327Z" fill="#4338CA"></path>
</g>
</g>
<defs>
<clipPath id="SvgjsClipPath1002">
<rect width="1756" height="2358" fill="white"></rect>
</clipPath>
</defs>
</svg><style>@media (prefers-color-scheme: light) { :root { filter: none; } }
@media (prefers-color-scheme: dark) { :root { filter: none; } }
</style></svg>